STARTFONT 2.3
FONT -FontForge-Indie Flower-Book-R-Normal--36-360-72-72-P-166-ISO10646-1
SIZE 36 72 72  2
FONTBOUNDINGBOX 44 54 -5 -18
COMMENT "Generated by fontforge, http://fontforge.sourceforge.net"
COMMENT "Copyright (c) 2010, Kimberly Geswein (kimberlygeswein.com)"
STARTPROPERTIES 40
FOUNDRY "FontForge"
FAMILY_NAME "Indie Flower"
WEIGHT_NAME "Book"
SLANT "R"
SETWIDTH_NAME "Normal"
ADD_STYLE_NAME ""
PIXEL_SIZE 36
POINT_SIZE 360
RESOLUTION_X 72
RESOLUTION_Y 72
SPACING "P"
AVERAGE_WIDTH 166
CHARSET_REGISTRY "ISO10646"
CHARSET_ENCODING "1"
FONTNAME_REGISTRY ""
CHARSET_COLLECTIONS "ISO8859-2 ISO8859-9 ISO8859-4 ISO10646-1"
BITS_PER_PIXEL 2
FONT_NAME "IndieFlower"
FACE_NAME "Indie Flower"
COPYRIGHT "Copyright (c) 2010, Kimberly Geswein (kimberlygeswein.com)"
FONT_VERSION "1.001 2010"
FONT_ASCENT 29
FONT_DESCENT 7
UNDERLINE_POSITION -4
UNDERLINE_THICKNESS 2
X_HEIGHT 13
CAP_HEIGHT 18
RAW_ASCENT 799
RAW_DESCENT 200
NORM_SPACE 14
RELATIVE_WEIGHT 40
RELATIVE_SETWIDTH 50
SUPERSCRIPT_X 0
SUPERSCRIPT_Y 17
SUPERSCRIPT_SIZE 23
SUBSCRIPT_X 0
SUBSCRIPT_Y 5
SUBSCRIPT_SIZE 23
AVG_LOWERCASE_WIDTH 163
AVG_UPPERCASE_WIDTH 195
ENDPROPERTIES
CHARS 356
STARTCHAR space
ENCODING 32
SWIDTH 375 0
DWIDTH 14 0
BBX 1 1 0 0
BITMAP
00
ENDCHAR
STARTCHAR exclam
ENCODING 33
SWIDTH 149 0
DWIDTH 5 0
BBX 5 30 0 0
BITMAP
1800
2C00
2C00
2C00
2C00
2C00
2D00
2D00
2D00
2D00
2D00
2D00
2D00
2D00
2D00
2D00
2D00
2D00
2D00
1D00
1800
0000
0000
0000
0000
0000
1A00
7F80
7F80
3E00
ENDCHAR
STARTCHAR quotedbl
ENCODING 34
SWIDTH 234 0
DWIDTH 8 0
BBX 8 12 0 17
BITMAP
0020
5038
B03C
743C
783C
783D
3C2D
3D2D
2E2D
1F2D
061D
0004
ENDCHAR
STARTCHAR numbersign
ENCODING 35
SWIDTH 768 0
DWIDTH 28 0
BBX 27 18 0 0
BITMAP
00000200800000
00000741C00000
00000741D00000
00000740E00000
00000780B55500
000007E6FFFF80
0005AFFFFEABD0
06BFFFEAB80000
6FF957D0780000
BE4003D07EAAA0
100003EBFFFFF8
0001AFFFFF9564
01BFFFF47C0000
02E941F07C0000
000000F03C0000
000000E03C0000
000000002D0000
00000000240000
ENDCHAR
STARTCHAR dollar
ENCODING 36
SWIDTH 581 0
DWIDTH 21 0
BBX 21 33 0 0
BITMAP
000003410000
000007470000
00000B4B0000
00000B0B0000
00000B4B0000
00000FFF0000
0000BFFF8000
0007FF5FD000
001FAE0E0000
002E1E0D0000
002D1E1D0000
001E1D1C0000
0007FD1C0000
0001FD2C0000
00007E7C0000
00003FFD0000
00003DBF4000
00003DBBD000
00003CF0B400
000038E03C00
000035E01E00
000075D00F00
B80072D00B40
7E00B2D00B40
1F80A2C00F00
02E5E3C00F00
007FF7C02E00
000BFFD07C00
0001FFE6F400
0000FBFF8000
0000F7E40000
0000E3C00000
000053800000
ENDCHAR
STARTCHAR percent
ENCODING 37
SWIDTH 636 0
DWIDTH 23 0
BBX 22 22 0 0
BITMAP
000000000900
000000002C00
01940000B400
0BFE0001E000
2F6F80038000
7C03D00B0000
B801D02C0000
B401D0740000
7802C0E00000
3D1F82C00000
0BFE07400000
01940F006900
00002D01FF80
00007C07D7D0
0000F40F41E0
0002F01D00F0
0003D02C00F0
000BC03802E0
000F407407C0
002E00396F40
002C001FFD00
00240006A000
ENDCHAR
STARTCHAR ampersand
ENCODING 38
SWIDTH 457 0
DWIDTH 16 0
BBX 16 25 0 0
BITMAP
000F4000
002FC000
002FD000
002FD000
002FD000
002FD000
003FD000
003FC000
003F4000
003F0000
003D01A9
007C07FE
00BD07D4
01FD0780
02EB0B40
07874F00
0B42FE00
1E01FD00
2D00FC00
3C00FC00
7802FD00
B40B8B00
B82E0280
3EFC00D0
1FE00050
ENDCHAR
STARTCHAR quotesingle
ENCODING 39
SWIDTH 102 0
DWIDTH 4 0
BBX 3 9 0 17
BITMAP
70
74
78
7C
3C
3C
3C
2C
04
ENDCHAR
STARTCHAR parenleft
ENCODING 40
SWIDTH 421 0
DWIDTH 15 0
BBX 15 23 0 -2
BITMAP
000006E0
00007FF4
0002F924
000B8000
001E0000
00780000
00F00000
02D00000
07800000
0F400000
1E000000
2D000000
3C000000
78000000
78000000
78000000
3C000000
2D000000
1F000000
0BD00000
03FE9000
00BFF000
00054000
ENDCHAR
STARTCHAR parenright
ENCODING 41
SWIDTH 290 0
DWIDTH 10 0
BBX 10 24 0 -2
BITMAP
050000
1FD000
06F400
00BD00
003E00
001F40
000BC0
0003D0
0002D0
0001E0
0001E0
0001E0
0001E0
0002D0
0003C0
000B80
001F00
003E00
00BC00
02F400
0BE000
2FC000
BF0000
780000
ENDCHAR
STARTCHAR asterisk
ENCODING 42
SWIDTH 412 0
DWIDTH 15 0
BBX 14 14 0 8
BITMAP
000000A0
080407E0
1F8E2F40
07FFFD00
01FFFA40
007FFF80
2FBFFD00
6BFFFC00
03E2FD00
07C1FE00
0B40FF40
0A00FB80
0000B000
00005000
ENDCHAR
STARTCHAR plus
ENCODING 43
SWIDTH 459 0
DWIDTH 17 0
BBX 16 15 0 0
BITMAP
000D0000
000E0000
000F0000
000B4000
000B8000
000BD400
016FFFF9
7FFFFFFE
BA57E554
0003D000
0002D000
0002D000
0002D000
0002D000
0001D000
ENDCHAR
STARTCHAR comma
ENCODING 44
SWIDTH 130 0
DWIDTH 5 0
BBX 4 12 0 -7
BITMAP
3C
7D
2D
2D
2D
2D
3C
7C
78
B4
B0
60
ENDCHAR
STARTCHAR hyphen
ENCODING 45
SWIDTH 375 0
DWIDTH 14 0
BBX 12 4 0 8
BITMAP
015554
1FFFFF
7FEAAB
140000
ENDCHAR
STARTCHAR period
ENCODING 46
SWIDTH 204 0
DWIDTH 7 0
BBX 6 7 1 0
BITMAP
0A00
2F80
3FC0
7FD0
7FD0
3F80
1E00
ENDCHAR
STARTCHAR slash
ENCODING 47
SWIDTH 309 0
DWIDTH 11 0
BBX 11 27 0 0
BITMAP
000024
000074
000074
0000B0
0000F0
0000E0
0002D0
0003C0
000780
000B40
000F00
001F00
002E00
003C00
007800
00B400
00F000
02E000
03D000
07C000
0B8000
0F4000
2F0000
3D0000
7C0000
B40000
600000
ENDCHAR
STARTCHAR zero
ENCODING 48
SWIDTH 430 0
DWIDTH 16 0
BBX 15 16 0 0
BITMAP
001BE000
00BFFD00
02E5BF40
0B400BC0
1E0002E0
2C0001F0
380000B4
740000B8
740000B8
340000B4
380000F4
2D0002F0
0F4003D0
07E41F80
01FFFF00
001BF800
ENDCHAR
STARTCHAR one
ENCODING 49
SWIDTH 318 0
DWIDTH 11 0
BBX 11 21 0 0
BITMAP
000038
000078
000078
0000B4
0000F4
0002F4
000BF0
002FF0
00BFF0
01F7E0
07D3E0
1F43D0
7D03D0
7407D0
0007C0
0007C0
000780
000B80
000B40
000B00
000600
ENDCHAR
STARTCHAR two
ENCODING 50
SWIDTH 497 0
DWIDTH 18 0
BBX 17 20 0 0
BITMAP
0000154000
0000BFD000
0001F5F400
0002D07800
0002C03C00
0001402D00
0000002E00
0000001E00
0000001E00
0000002D00
0000003D00
0000007C00
000000B800
000000F400
150002D000
7FE4078000
BFFFBF4000
7FFFFFE500
1BFFFFFF80
0054016F80
ENDCHAR
STARTCHAR three
ENCODING 51
SWIDTH 430 0
DWIDTH 16 0
BBX 15 19 0 0
BITMAP
0BFFE000
2FFAFD00
1D001E00
00000B00
00000F00
00007E00
001BF400
07FFD000
07FFE400
005BFD00
00006F80
000007D0
000001F0
380000B4
7E0000B8
1F8000B4
07F506F4
00BFFFD0
001BFE40
ENDCHAR
STARTCHAR four
ENCODING 52
SWIDTH 412 0
DWIDTH 15 0
BBX 14 22 0 0
BITMAP
06400000
0B400000
0F000000
1E000000
2D000000
3C000000
78000070
740000F0
740001F0
740003E0
38000BE0
3C001FD0
2E007FD0
1F96FFD0
0BFFF7D0
02FF42D0
001402D0
000002E0
000002E0
000002E0
000002E0
000001D0
ENDCHAR
STARTCHAR five
ENCODING 53
SWIDTH 571 0
DWIDTH 21 0
BBX 20 24 0 0
BITMAP
00006AAA90
0002FFFFFD
0007E55569
0002D00000
0003800000
000B400000
001F000000
002E000000
007E400000
00BFF90000
006BFFD000
000016F800
0000006E00
0000000B40
00000003C0
00000002D0
10000001D0
70000001E0
74000002E0
74000007D0
3D00001FC0
1FE956FF40
06FFFFF800
006BFF9000
ENDCHAR
STARTCHAR six
ENCODING 54
SWIDTH 440 0
DWIDTH 16 0
BBX 15 22 0 0
BITMAP
00000590
00006FF8
0002FAB8
000BD014
002E0000
00B80000
01E00000
03C00000
0B400000
0F010000
2FBFFD00
3FFAAF80
3E4007E0
780001F4
740000B8
74000078
38000078
3D0000B8
2F4002F4
0FE56FE0
07FFFF40
00BFE400
ENDCHAR
STARTCHAR seven
ENCODING 55
SWIDTH 412 0
DWIDTH 15 0
BBX 13 20 1 0
BITMAP
40000000
FFFFE000
6AAAE000
0001E000
0000E000
0000E000
0001E000
0001E000
0002E000
0557E500
1FFFFFC0
06ABEBC0
0007C040
00078000
000B4000
000B4000
000F0000
001F0000
001E0000
001D0000
ENDCHAR
STARTCHAR eight
ENCODING 56
SWIDTH 375 0
DWIDTH 14 0
BBX 13 21 0 0
BITMAP
00690000
02FFD000
0FEBF000
2E00F400
7C00B400
7400F000
7802D000
2E0B4000
0BEE0000
01FD0000
01FE0000
03D78000
0B41F000
1F003C00
1E001E00
1E000B40
0F000740
0B800740
03E00B40
00BEBE00
001BF800
ENDCHAR
STARTCHAR nine
ENCODING 57
SWIDTH 300 0
DWIDTH 11 0
BBX 11 22 0 0
BITMAP
02FE00
0FEFC0
2D01E0
7800F4
7400F4
B401F4
B802F4
7C03F0
3E07F0
1FFFE0
06FFE0
0017E0
0002E0
0001D0
0001D0
0002D0
0002D0
0002D0
0002D0
0002D0
0001D0
0001D0
ENDCHAR
STARTCHAR colon
ENCODING 58
SWIDTH 84 0
DWIDTH 3 0
BBX 3 10 0 2
BITMAP
74
38
14
00
00
00
00
10
74
10
ENDCHAR
STARTCHAR semicolon
ENCODING 59
SWIDTH 128 0
DWIDTH 5 0
BBX 5 21 -1 -7
BITMAP
1E00
1F00
0E00
0000
0000
0000
0000
0000
0000
0240
0380
0780
0780
0780
0B40
1F00
2F00
7E00
7C00
B800
5000
ENDCHAR
STARTCHAR less
ENCODING 60
SWIDTH 487 0
DWIDTH 18 0
BBX 17 15 0 0
BITMAP
0000000600
0000006F40
000002F800
00001FD000
0000BE0000
0002F40000
001F800000
00BD000000
07E0000000
1F80000000
7F40000000
BFFE940000
1BFFFFE000
0016AFFC00
0000006C00
ENDCHAR
STARTCHAR equal
ENCODING 61
SWIDTH 524 0
DWIDTH 19 0
BBX 18 10 0 4
BITMAP
1ABFFFFE80
7FFFFFFFE0
05555001A0
0000000000
0000000000
0000000000
0000000000
1AAAAAFA00
7FFFFFFF80
0555555500
ENDCHAR
STARTCHAR greater
ENCODING 62
SWIDTH 403 0
DWIDTH 15 0
BBX 14 17 1 0
BITMAP
50000000
FC000000
7F800000
0BF90000
01BFE900
0006FFC0
00000BD0
00000FC0
00002F40
0000BD00
0007F400
002F8000
01FD0000
07E00000
2F800000
BD000000
E0000000
ENDCHAR
STARTCHAR question
ENCODING 63
SWIDTH 272 0
DWIDTH 10 0
BBX 9 31 0 0
BITMAP
1FE400
BFFD00
A02F00
000780
0003C0
0003C0
0003C0
0007C0
000B80
000F40
001F00
003E00
00BD00
00F800
02F000
03E000
07C000
07E400
03FF80
00AF80
000000
000000
000000
000000
000000
000000
000000
000000
000240
000B80
000780
ENDCHAR
STARTCHAR at
ENCODING 64
SWIDTH 815 0
DWIDTH 29 0
BBX 29 32 0 0
BITMAP
00001BFF90000000
0001BFABFD000000
0007E4006FD00000
002F400002F80000
00B80000002F4000
01E000000007D000
038000000001F400
0B00000000007D00
0D00000000002E00
2C00000694000F00
380000BFFE400B40
340007E41BE00740
70000F0001F40740
70002C0000780740
700074000B100740
7000B0000F400B40
3400E0000F800F00
3800E0001F801E00
2C01D0001F802D00
1D01E0001F807C00
0E00E0007FE5F400
0B40B401F9FFE000
07803E5BE02A4000
02D00BFF40000000
00F4016400000000
007D000000000000
001F400000000000
0007D00000000000
0001F80000001400
00006F90005BFC00
000007FEABFFE000
000000BFFFE90000
ENDCHAR
STARTCHAR A
ENCODING 65
SWIDTH 562 0
DWIDTH 20 0
BBX 19 28 1 0
BITMAP
0001500000
002FFE0000
01F96F8000
03D002E000
0B4000B400
0E00003C00
1D00001D00
1C00000F00
2C00000B40
2800000780
3800000380
34000002C0
34000002D0
34000001D0
74000001E0
74000002E0
BFFFAAA7F0
FEAAABFFF0
78000000F0
38000000F0
38000000B4
3C000000B4
3C000000B4
3D000000F4
2D000000F4
2E000001F0
1E000001F0
0A000001D0
ENDCHAR
STARTCHAR B
ENCODING 66
SWIDTH 741 0
DWIDTH 27 0
BBX 26 25 0 0
BITMAP
0016BF90000000
06FFFFFE000000
7F6FF95BD00000
640BC001F40000
0003C000780000
0002D0003C0000
0001E000780000
0000E000B00000
0000F01BD00000
0000B5FF800000
0000B5FF900000
0000786FF90000
00007C06FF8000
00003C001BE000
00003D0000BC00
00002D00001F00
00002E00000780
00001E000002D0
00001E000002E0
00001E000001F0
00002E000002F0
0000BF000003E0
00007FE4001FD0
00001BFFFFFF40
0000006BFFE400
ENDCHAR
STARTCHAR C
ENCODING 67
SWIDTH 515 0
DWIDTH 19 0
BBX 18 24 0 0
BITMAP
0000014000
00006FE000
0002FFF000
000BE4B000
002E40A000
00B800C000
01E0000000
0380000000
0B00000000
1D00000000
2C00000000
3800000000
3400000000
7400000000
7400000000
7400000000
3800000000
3C00000000
2D00000000
1E00000000
0F80001A90
07E56BFFC0
01FFFFE900
006FE50000
ENDCHAR
STARTCHAR D
ENCODING 68
SWIDTH 741 0
DWIDTH 27 0
BBX 26 24 0 -1
BITMAP
005AA500000000
1BFFFFE4000000
7FA55FFF900000
24000B9BF80000
000007807F4000
000003800BE000
000003C001F800
000002C0007D00
000002D0001F00
000001D0000B80
000001E00003C0
000001E00002D0
000001F00001E0
000000F00001E0
000000F40001E0
000000F40002E0
000000F40003D0
000000F4000BC0
000000B4002F40
0000006000BE00
000079401BF800
00003FFAFFD000
00000BFFFE0000
00000055400000
ENDCHAR
STARTCHAR E
ENCODING 69
SWIDTH 524 0
DWIDTH 19 0
BBX 17 23 0 0
BITMAP
0540000000
2FFFFFFE00
2FFFEAAB80
2D00000000
2D00000000
2D00000000
2D00000000
2D00000000
2D00001500
2D016BFE00
7FFFFFE400
3FA9540000
3C00000000
3800000000
3800000000
3800000000
7800000000
7800000000
7800000000
7800000000
3E556AFF80
1FFFFFFF80
06FFFFA400
ENDCHAR
STARTCHAR F
ENCODING 70
SWIDTH 514 0
DWIDTH 19 0
BBX 23 22 -1 0
BITMAP
00155A954000
1BFFFFFFFA00
FFFFFAAAFFE0
401F40001BF8
000F00000018
000F00000000
000F00000000
000F00000000
000F00000000
000B40000000
000F96A94000
06BFFFFFD000
07EFFFFA4000
0007C0000000
0003C0000000
0002D0000000
0002D0000000
0002D0000000
0002E0000000
0002F0000000
0001F0000000
000060000000
ENDCHAR
STARTCHAR G
ENCODING 71
SWIDTH 571 0
DWIDTH 21 0
BBX 19 22 1 -3
BITMAP
000001AE40
00002FFFD0
0002FE55A0
001F900000
00BD000000
02E0000000
0B80000000
1E00000000
3D00901540
7800FFFFE0
B4006AAAF0
B0000000F0
B0000000F0
B0000000F0
74000002F0
3D00000BF0
1FD555BFF0
07FFFFA6F0
006A9001F0
00000000F4
00000000BC
0000000014
ENDCHAR
STARTCHAR H
ENCODING 72
SWIDTH 524 0
DWIDTH 19 0
BBX 18 25 0 0
BITMAP
0000000040
0400000380
2800000380
2C00000780
2C00000780
2C00000780
2D00000780
1D00000780
1D00000780
1E00000780
1E00001F80
0E0001FF80
0F001FFB80
0F01FE4780
0FAFE40380
1FFE000380
7FE00003C0
1F800003C0
07800003C0
07800002D0
03800002D0
03800002D0
03800002E0
02800001E0
01400000E0
ENDCHAR
STARTCHAR I
ENCODING 73
SWIDTH 167 0
DWIDTH 6 0
BBX 6 20 0 0
BITMAP
6000
7400
7800
3C00
2D00
1D00
1E00
0F00
0B00
0B40
0B40
0780
0780
07C0
03C0
03C0
03D0
02D0
02D0
00D0
ENDCHAR
STARTCHAR J
ENCODING 74
SWIDTH 439 0
DWIDTH 16 0
BBX 15 25 1 0
BITMAP
00000A00
00000B00
00000740
00000780
00000780
000003C0
000003D0
000002D0
000002D0
000001E0
000001E0
000001F0
500000F0
E00000F0
E00000F0
F00000B4
780000B4
2D0000B0
0B0000F0
038000F0
01E000F0
007D01E0
001F92D0
0002FF80
00006E00
ENDCHAR
STARTCHAR K
ENCODING 75
SWIDTH 468 0
DWIDTH 17 0
BBX 16 21 0 0
BITMAP
70000B40
74007E00
7800F800
3803E000
380B8000
382F0000
2C7C0000
2DF40000
1FD00000
1F400000
1F400000
1FD00000
1FF00000
1EBD0000
1E2F4000
1E0BE000
1E01FD00
0F002F80
0F0007F4
0B0000BE
0700001F
ENDCHAR
STARTCHAR L
ENCODING 76
SWIDTH 346 0
DWIDTH 12 0
BBX 12 19 0 0
BITMAP
0A0000
0E0000
1E0000
2E0000
2E0000
2D0000
3D0000
3C0000
3C0000
3C0000
780000
780000
780000
780000
780000
3D0000
2FA550
0BFFFE
01BFFE
ENDCHAR
STARTCHAR M
ENCODING 77
SWIDTH 534 0
DWIDTH 19 0
BBX 19 22 0 0
BITMAP
7800000380
7E000007C0
2F40000FC0
1F80001F80
0BD0002F80
0BF4007F80
0BFD46FF80
0B6FFFFF80
0B47FE4B80
0B40000780
0F40000780
0F400003C0
0F400003C0
0F400003D0
0F400003D0
0F400002E0
0F400002E0
0F400002F0
0F400001F0
0F400001F0
0B000001F4
00000000F0
ENDCHAR
STARTCHAR N
ENCODING 78
SWIDTH 609 0
DWIDTH 22 0
BBX 20 20 1 0
BITMAP
1000000000
B400000000
7400000640
78000007C0
7C000007E0
7D000003F0
7E000001F4
7F000000F8
7F4000007C
7FC000002D
BFD000001E
B5E000000F
B0B400000F
B03C00000F
F01F00001E
F40B80002D
F402F400BC
F400FFABF4
F4002FFFD0
B00001A900
ENDCHAR
STARTCHAR O
ENCODING 79
SWIDTH 609 0
DWIDTH 22 0
BBX 21 18 0 0
BITMAP
000540000000
00BFF9000000
07FAFFE00000
0F4006FD0000
2D00006F8000
3C000007E000
78000000F800
740000003D00
740000001F00
740000000B40
380000000780
2D00000003C0
1F00000007C0
0F8000000B80
07F400006F00
01FE4016FC00
002FFFFFD000
0006BFA50000
ENDCHAR
STARTCHAR P
ENCODING 80
SWIDTH 627 0
DWIDTH 23 0
BBX 22 22 0 0
BITMAP
005A94000000
1BFFFFE40000
7E556BFF9000
7800001BF800
74000000BF40
100034000BC0
0000740002E0
0000740001E0
0000740000F0
0000780001F0
0000780002E0
00007C000BC0
00003D45BF40
00003FFFF800
00003FFE4000
00002E500000
00002E000000
00001E000000
00001E000000
00000E000000
00000B000000
000006000000
ENDCHAR
STARTCHAR Q
ENCODING 81
SWIDTH 642 0
DWIDTH 23 0
BBX 23 24 1 -4
BITMAP
000140000000
006FF9000000
02FFFFD00000
0B8007F80000
2D0001FE0000
380000EFC000
740000E2F000
B00001D0B800
F00000403E00
F00000000F00
F00000000780
F000040003C0
B0000E0002D0
78000B4002C0
3C0007D003C0
1F0002F01F40
0BD001F9BE00
02FE56FFF400
007FFFFFD000
0006FFABE000
00000000B800
000000001F40
000000000BE0
0000000001F4
ENDCHAR
STARTCHAR R
ENCODING 82
SWIDTH 579 0
DWIDTH 21 0
BBX 21 25 -1 -2
BITMAP
001555400000
07FFFFF90000
2FEAAAFFD000
7D000007F400
74000000BD00
201400002E00
002C00000F00
002C00002E00
002D0001FD00
002D016FF400
001FBFFF8000
001FFFA40000
000FD4000000
000FC0000000
000BE0000000
000BB8000000
00076E000000
00074B800000
000382E00000
0002C0B80000
0001C02F4000
0001C007E000
00008001FD00
000000002F80
000000000140
ENDCHAR
STARTCHAR S
ENCODING 83
SWIDTH 627 0
DWIDTH 23 0
BBX 22 23 0 -1
BITMAP
000016940000
0006FFFF9000
001F9407F800
003C00007D00
007400000500
007800000000
003C00000000
001F40000000
0007E0000000
0001BE000000
00001FE40000
000001FE4000
0000002FE000
04000002FD00
380000002F40
7800000007C0
3D00000002E0
1E00000002E0
0B80000003D0
01F900001BC0
002FFEABFF40
0001BFFFE400
000001540000
ENDCHAR
STARTCHAR T
ENCODING 84
SWIDTH 581 0
DWIDTH 21 0
BBX 24 23 0 0
BITMAP
555555000000
BFFFFFFFEA40
016AFFFFFFF9
000003C016FF
000002C00005
000002C00000
000002C00000
000002D00000
000002D00000
000001D00000
000001E00000
000001E00000
000000F00000
000000F00000
000000F00000
000000F40000
000000B40000
000000B80000
000000780000
0000007C0000
0000003E0000
0000003F0000
0000001F0000
ENDCHAR
STARTCHAR U
ENCODING 85
SWIDTH 571 0
DWIDTH 21 0
BBX 19 20 1 0
BITMAP
1400000000
7C00000D00
B400001E00
A000001E00
E000002F00
E000001F00
E000001F00
E000000F00
E000000F00
B000000B40
B000000780
74000007C0
78000007D0
3C00000BE0
2D00001FF0
1F00007FF4
0B8002F9F8
07F96F907C
01FFFE002C
002FE00000
ENDCHAR
STARTCHAR V
ENCODING 86
SWIDTH 421 0
DWIDTH 15 0
BBX 15 19 0 0
BITMAP
20000020
7C000074
3E0000B4
2F0000F4
1F4001F0
0F8002F0
07D002E0
03E003E0
02F003D0
01F807C0
00BC07C0
007D0B80
002F0F40
001F4F00
000B9E00
0007FD00
0002F800
0001F400
0000A000
ENDCHAR
STARTCHAR W
ENCODING 87
SWIDTH 703 0
DWIDTH 25 0
BBX 25 18 0 0
BITMAP
20000000004000
7400000000E000
B400000000F400
B400000000BC00
B4000000007D00
B8000000003E00
B8000000002E00
78000A00001F00
78000B00000F40
7C000B40000B40
3C000F80000780
2D000FC0000780
2E001FD0000B40
1F007FF4000F40
0B41F8BD002E00
07EBE02F96FC00
01FF4007FFE000
00690001BE4000
ENDCHAR
STARTCHAR X
ENCODING 88
SWIDTH 534 0
DWIDTH 19 0
BBX 19 21 0 -2
BITMAP
0240000000
03C0000068
02E00002F4
00F0001F80
0078007D00
002D01F400
000F07C000
0007FE0000
0003F80000
0003F00000
000FF40000
002FF80000
007C7E0000
01F01F4000
03D007C000
0B8002E000
1F0000B800
2D00003D00
3C00000E00
7800000000
7000000000
ENDCHAR
STARTCHAR Y
ENCODING 89
SWIDTH 403 0
DWIDTH 15 0
BBX 14 24 0 -1
BITMAP
70000000
740000A0
3C0000E0
2E0000E0
1F4001E0
0BD003D0
02F407C0
00BE4B80
001FFF40
0002FF00
00003E00
00003D00
00007C00
0000B400
0000F000
0001E000
0001D000
0002D000
0002C000
0003C000
0003C000
0003C000
0003C000
00014000
ENDCHAR
STARTCHAR Z
ENCODING 90
SWIDTH 571 0
DWIDTH 21 0
BBX 20 23 0 0
BITMAP
0055000000
1BFFF80000
7FA6BF4000
640007D000
000001F000
000000B400
0000007400
0000007400
000000B400
000000F000
000002F400
0005AFFFE4
00BFFFFFE4
00EABF9000
00002E0000
00003C0000
0000B40000
0001E00000
0007C00000
000B80006A
000F416FFF
000BFFFFE8
0007FFE900
ENDCHAR
STARTCHAR bracketleft
ENCODING 91
SWIDTH 477 0
DWIDTH 17 0
BBX 20 30 0 -4
BITMAP
0000000500
00001AFF40
0006FFE500
01BFE40000
2FF9000000
7E40000000
3D00000000
2D00000000
2E00000000
1F00000000
0F40000000
0B80000000
0780000000
07C0000000
03C0000000
02C0000000
02D0000000
01D0000000
01E0000000
00E0000000
00E0000000
00B0000000
00B0000000
00B0000000
0074000000
0074000000
007D56AAA8
007FFFFFFD
003E955554
0010000000
ENDCHAR
STARTCHAR backslash
ENCODING 92
SWIDTH 430 0
DWIDTH 16 0
BBX 15 20 0 0
BITMAP
50000000
B4000000
3C000000
2F000000
0F800000
07E00000
01F80000
00BD0000
002F4000
000FD000
0007F000
0002F800
0000BE00
00003F40
00001FC0
000007E0
000002F4
000000F8
000000BC
00000074
ENDCHAR
STARTCHAR bracketright
ENCODING 93
SWIDTH 430 0
DWIDTH 16 0
BBX 15 34 0 -4
BITMAP
6EA50000
6FFFF800
016BFF00
00005F80
00000BC0
000003C0
000003D0
000002E0
000001E0
000001E0
000000E0
000000E0
000000E0
000000B0
000000B0
000000B0
000000B0
000000B0
000000B0
00000074
00000074
00000074
00000074
00000074
00000074
00000078
00000078
00000078
00000078
00000078
015555B8
0BFFFFFC
0BFFFFF8
01555550
ENDCHAR
STARTCHAR asciicircum
ENCODING 94
SWIDTH 375 0
DWIDTH 14 0
BBX 10 8 2 19
BITMAP
004000
00F000
01F800
03FE00
0BFF40
2F1FC0
BD07D0
E401D0
ENDCHAR
STARTCHAR underscore
ENCODING 95
SWIDTH 656 0
DWIDTH 24 0
BBX 22 4 1 0
BITMAP
AA5000000000
6FFFFAAAAA80
01ABFFFFFFF0
0000156ABFE0
ENDCHAR
STARTCHAR grave
ENCODING 96
SWIDTH 172 0
DWIDTH 6 0
BBX 6 5 0 15
BITMAP
7800
2F00
0BC0
02E0
0040
ENDCHAR
STARTCHAR a
ENCODING 97
SWIDTH 505 0
DWIDTH 18 0
BBX 17 18 0 0
BITMAP
000BE00000
002FFE0000
00286F8000
000007E000
000000F400
0000007C00
0000003E00
006FFA6F00
07FFAFFF40
1FD001FF80
3D00002F80
7800000BC0
74000003C0
38000001C0
2E00000040
0FE95ABFC0
02FFFFFE40
001AFE9000
ENDCHAR
STARTCHAR b
ENCODING 98
SWIDTH 497 0
DWIDTH 18 0
BBX 18 23 0 0
BITMAP
2400000000
B800000000
B800000000
7800000000
7C00000000
3C00000000
3C00000000
2D00000000
2D00000000
1D00000000
1E00000000
0FBFE90000
0FFFFF9000
0FD01BF800
0B80007E00
0B40000F80
0B400007C0
07400003C0
07C00003D0
03E0000BC0
01FD406F80
00BFFFFE00
001BFFA400
ENDCHAR
STARTCHAR c
ENCODING 99
SWIDTH 449 0
DWIDTH 16 0
BBX 15 16 0 0
BITMAP
001BF800
00BEBF40
03D00780
0F400280
1E000140
3C000000
3C000000
78000000
78000000
78000000
3C000000
2E000000
1F800000
07F94000
01FFFFFC
001BFFE4
ENDCHAR
STARTCHAR d
ENCODING 100
SWIDTH 524 0
DWIDTH 19 0
BBX 18 26 0 0
BITMAP
0000009000
000001F000
000000F800
000000FC00
000000BD00
0000007E00
0000003E00
0000002F00
0000002F40
0000001F40
00BF901F80
02FFF90F80
0BFABF8F80
1FD00BFFC0
2F0000BFC0
3E00002FC0
7C00000FC0
7C00001FD0
7C00002FD0
7C00003FD0
3D0000BFD0
2E0002F7E0
1F401FD2E0
0BE6FF41F0
03FFF80050
00BF800000
ENDCHAR
STARTCHAR e
ENCODING 101
SWIDTH 515 0
DWIDTH 19 0
BBX 18 19 0 0
BITMAP
0006900000
007FFD0000
02F91F4000
078007C000
0F0002C000
2D0002D000
3C0002C000
38000B8000
78007F4000
799BFD0000
79FF900000
3C54000000
3C00000000
2E00000000
0F40000000
07E0000000
01FE955590
002FFFFF40
0006BFA400
ENDCHAR
STARTCHAR f
ENCODING 102
SWIDTH 376 0
DWIDTH 14 0
BBX 18 26 -1 0
BITMAP
0000050000
0000BFE000
0007FAFD00
000F802F40
001E000BC0
002C0002D0
0038000000
0074000000
0070000000
00B4000000
00B4000000
00B4000000
00B8000000
00B8000000
05BE954000
3FFFFFE000
697FAF9000
001F000000
000F400000
000B800000
0003D00000
0002F00000
0000F80000
0000BD0000
00003E0000
00001E0000
ENDCHAR
STARTCHAR g
ENCODING 103
SWIDTH 366 0
DWIDTH 13 0
BBX 19 33 -5 -18
BITMAP
000001A400
00001FFD00
00007E5F00
0001F00740
0003C00780
00078003C0
000B0003D0
000E0003D0
001E0007D0
001E0007E0
000F400FE0
000BD07FE0
0003FFFFE0
0000BF93E0
00000402E0
00000002F0
00000001F0
00000001F0
00000000F0
00000000F0
00000000F0
00000000B0
00000000B4
70000000F0
B0000000F0
B4000000F0
78000001E0
2F400002D0
0BE40003D0
02FF900B80
006FFFBF40
0002FFFD00
0000059000
ENDCHAR
STARTCHAR h
ENCODING 104
SWIDTH 427 0
DWIDTH 15 0
BBX 15 26 -1 0
BITMAP
10000000
74000000
78000000
3C000000
3D000000
2E000000
1F000000
0F000000
0F000000
0B414000
0B6FF800
07FFFF00
07F96F80
07C002D0
038000F0
038000B4
03C00074
03C00038
02C00038
02D0003C
02D0007C
02E0007C
02E0007C
01E0007C
01E00078
00D00074
ENDCHAR
STARTCHAR i
ENCODING 105
SWIDTH 174 0
DWIDTH 6 0
BBX 6 22 0 0
BITMAP
6000
B800
2800
0000
0000
0000
0A00
0B00
0B00
0B00
0B00
0B40
0B40
0B80
0BC0
07C0
07D0
07D0
03E0
03E0
02E0
01D0
ENDCHAR
STARTCHAR j
ENCODING 106
SWIDTH 200 0
DWIDTH 7 0
BBX 12 37 -4 -16
BITMAP
002800
002D00
001900
000000
000000
000000
000000
000340
000380
0003C0
0003D0
0002E0
0002F0
0001F0
0001F4
0000F8
0000B8
0000BC
00007C
00007D
00003D
00003D
00002E
00002E
00001E
D0001F
F0000F
B4000F
7C000F
3D000F
2F000F
0F800F
07D00F
02F41E
00BFBE
001FFD
0002F8
ENDCHAR
STARTCHAR k
ENCODING 107
SWIDTH 403 0
DWIDTH 15 0
BBX 15 22 0 0
BITMAP
C0000000
D0000000
A0000000
B0000000
74000000
78000000
38002D00
3C00B800
2D01E000
2D038000
1E0A0000
1E7C0000
0FF40000
0FE00000
0FC00000
0FC00000
0FE00000
0FF80000
0FAF9000
0F07FE90
1F00BFF4
0E001A90
ENDCHAR
STARTCHAR l
ENCODING 108
SWIDTH 120 0
DWIDTH 4 0
BBX 3 21 1 0
BITMAP
D0
F0
F0
F0
F0
F4
F4
F4
F4
F4
F4
F4
F4
F4
F4
F4
F4
F4
B4
B0
B0
ENDCHAR
STARTCHAR m
ENCODING 109
SWIDTH 750 0
DWIDTH 27 0
BBX 25 16 1 0
BITMAP
00000000040000
00100001BF8000
97FF400BFFF000
FFFFE02F91B800
FF40B8BD003D00
FD003FF4001F00
F8001FD0000F40
B4000FC0000B80
B4000BC0000780
B40007C00003C0
B40003D00003C0
B80002E00003C0
B80001F00007C0
B80000A00007C0
78000000000780
10000000000740
ENDCHAR
STARTCHAR n
ENCODING 110
SWIDTH 459 0
DWIDTH 17 0
BBX 15 16 1 0
BITMAP
001BE000
41FFFD00
EBD47F00
FE000F80
FC0007C0
F80002E0
F40001F0
F40000F4
B80000B4
B80000B8
BC000078
7C00007C
3D00007C
2E000078
1E000078
06000074
ENDCHAR
STARTCHAR o
ENCODING 111
SWIDTH 487 0
DWIDTH 18 0
BBX 17 15 0 0
BITMAP
0006FE4000
00BFFFE000
02F90BF800
0B8000BD00
2E00002E00
3C00000B40
7800000B40
7400000B80
7800000B40
3800001F40
3D00007F00
1F4001FD00
0BE41BF400
02FFFFD000
006FF90000
ENDCHAR
STARTCHAR p
ENCODING 112
SWIDTH 520 0
DWIDTH 19 0
BBX 18 26 0 -13
BITMAP
0001550000
006FFFE400
02FFAAFE00
0BE4001F80
1F400007D0
3E000001E0
3E000000F0
7F000000F0
7F280002F0
7F2F905FE0
3F0FFFFF80
3F41BFF900
2F40000000
2F80000000
1F80000000
0FC0000000
0FC0000000
0BD0000000
07D0000000
03E0000000
03E0000000
02F0000000
01F0000000
00F4000000
00B4000000
0024000000
ENDCHAR
STARTCHAR q
ENCODING 113
SWIDTH 412 0
DWIDTH 15 0
BBX 14 30 0 -12
BITMAP
001AE800
00BFFF40
02E40BD0
078002D0
0F0002D0
2D0003D0
3C0003D0
380007D0
740007C0
740007C0
74000BC0
38000BC0
3C000B80
2E000B80
0F901F80
07FFFF40
01BFFF40
00050B80
00000B80
00000780
00000780
00000780
000007C0
000007C0
000007C0
000003C0
000003C0
000003D0
000002D0
00000040
ENDCHAR
STARTCHAR r
ENCODING 114
SWIDTH 346 0
DWIDTH 12 0
BBX 12 17 0 0
BITMAP
000100
00BFF8
6BEBFE
7E401A
7C0000
7C0000
3C0000
3C0000
2C0000
2D0000
1E0000
0F0000
0F4000
0B8000
07C000
02C000
018000
ENDCHAR
STARTCHAR s
ENCODING 115
SWIDTH 514 0
DWIDTH 19 0
BBX 17 17 1 0
BITMAP
0055000000
0BFFE00000
2FAABC0000
B8001D0000
B4000E0000
B4001D0000
3D00000000
1FA5400000
02FFFE9000
0005ABF800
0000007F00
0000000F40
9000000F40
F800000F40
7F90007F00
0BFFFFFD00
01AFFF9000
ENDCHAR
STARTCHAR t
ENCODING 116
SWIDTH 328 0
DWIDTH 12 0
BBX 12 23 0 -1
BITMAP
007400
00B800
007800
007800
007800
007C00
007C00
00BC00
6FFFF9
7FFFFD
057D00
007C00
007C00
007C00
007C00
007C00
007C00
007D00
003D00
003D00
002D00
001D00
000900
ENDCHAR
STARTCHAR u
ENCODING 117
SWIDTH 501 0
DWIDTH 18 0
BBX 18 17 0 0
BITMAP
1400000000
3800000000
7800002400
7400007C00
7400007C00
7400007D00
7800007D00
3C00007D00
3C00007D00
2D00007D00
1F0000FE00
0F4002FF00
07D00BDF40
02F42F0780
00BFFC03C0
001BE003D0
00000002D0
ENDCHAR
STARTCHAR v
ENCODING 118
SWIDTH 389 0
DWIDTH 14 0
BBX 14 14 0 0
BITMAP
10000000
B8000000
3D0002D0
2E000780
1F000F40
0B801E00
07C02D00
02D07C00
01F0B800
00B4F400
007EF000
002FE000
000FC000
00074000
ENDCHAR
STARTCHAR w
ENCODING 119
SWIDTH 656 0
DWIDTH 24 0
BBX 23 15 0 0
BITMAP
1C0000000000
2C0000000000
3C0000000600
780001400380
B40003C001D0
B40003C000F0
B40003D000B4
780003D000B4
780003D00078
3C0007E000B8
2E000BF000F8
0F407FF802F4
07D6FD3FAFE0
01FFF40FFFC0
006F90015500
ENDCHAR
STARTCHAR x
ENCODING 120
SWIDTH 448 0
DWIDTH 16 0
BBX 16 16 0 -2
BITMAP
9000001A
B80000BD
3E0002F4
1F801F80
07E07E00
01FFF400
007FC000
002F8000
007FE000
00E2FC00
02C07F00
07401F80
0A0007E0
0D0001F4
000000BC
00000028
ENDCHAR
STARTCHAR y
ENCODING 121
SWIDTH 487 0
DWIDTH 18 0
BBX 17 34 0 -18
BITMAP
1000000800
7000000C00
7000000D00
7400000E00
7400000E00
7800000F00
3C00000F00
2D00000F40
2E00000F40
0F00000F80
0B40001F80
03C0007F80
01F402FF80
007FAF9380
001BFD0280
00005002C0
00000002C0
00000002C0
00000002C0
00000002C0
00000003C0
0000000380
0000000380
0000000780
0000000740
0000000B40
1C00000B00
1F00000F00
0FC0001E00
07F4003D00
01FE00B800
002FEBF000
0006FFD000
0000190000
ENDCHAR
STARTCHAR z
ENCODING 122
SWIDTH 459 0
DWIDTH 17 0
BBX 16 19 0 0
BITMAP
005A9000
1BFFF800
7F556E00
38000F00
00000F00
00000F00
00000E00
00002D00
00007D00
16AFFFE0
2FFFEA40
055F8000
002F0000
007D0000
00F40000
02F4001D
03F95BFD
02FFFFF4
006FE940
ENDCHAR
STARTCHAR braceleft
ENCODING 123
SWIDTH 393 0
DWIDTH 14 0
BBX 14 36 0 -4
BITMAP
0006FE40
007FEBC0
02F901D0
0BD00040
1F400000
3E000000
7C000000
78000000
74000000
34000000
3C000000
1E000000
0BD00000
03F90000
00BFD000
000BF800
001FFC00
007FFD00
07F41F00
2F401F00
14001F00
00003E00
0000BC00
0007E000
001F4000
00BD0000
02E00000
07C00000
0B400000
0B000000
0B400000
07800000
03E00000
01FE5AF0
00BFFF90
00155400
ENDCHAR
STARTCHAR bar
ENCODING 124
SWIDTH 149 0
DWIDTH 5 0
BBX 5 23 0 0
BITMAP
7000
7400
7800
3800
2C00
1D00
1D00
0E00
0E00
0F00
0B00
0B00
0B40
0B40
0B40
0B40
0B40
0B40
0B40
0B40
0740
0780
0740
ENDCHAR
STARTCHAR braceright
ENCODING 125
SWIDTH 440 0
DWIDTH 16 0
BBX 15 42 0 -8
BITMAP
2BEAA000
BFFFFD00
B9006F40
3F000B80
050007C0
000007C0
000007C0
00000F80
00003F00
0000FC00
0003E000
000F8000
003D0000
00B80000
00F00000
00F40000
00BFFF80
007FFF80
007E5500
00B40000
00B40000
007D0000
001F4000
0007D000
0001F000
00007800
00002E00
00000F00
00000780
000002D0
000001E0
000000B0
00000078
00000038
0000003C
0000003C
00000078
900000B8
F40001F0
7E400BD0
2FEABF80
06FFF900
ENDCHAR
STARTCHAR asciitilde
ENCODING 126
SWIDTH 402 0
DWIDTH 14 0
BBX 14 6 0 14
BITMAP
01400040
1FF402D0
3C2F6F40
7407FD00
34005000
10000000
ENDCHAR
STARTCHAR nonbreakingspace
ENCODING 160
SWIDTH 375 0
DWIDTH 14 0
BBX 1 1 0 0
BITMAP
00
ENDCHAR
STARTCHAR exclamdown
ENCODING 161
SWIDTH 149 0
DWIDTH 5 0
BBX 5 24 0 0
BITMAP
3E40
7F80
2F40
0000
0000
0000
0000
0400
1D00
1D00
1D00
1D00
1D00
1D00
1D00
1D00
1D00
1D00
1D00
1D00
1D00
1D00
1D00
1C00
ENDCHAR
STARTCHAR cent
ENCODING 162
SWIDTH 449 0
DWIDTH 16 0
BBX 16 21 0 -2
BITMAP
00034000
00038000
0003C000
001BE400
00BFFF40
03E1DB80
0B41E280
1E01E180
3D01E000
3C01E000
7801F000
7801F000
7801F000
3C01F000
3E01F000
1F81E000
0FF9F000
02FFFFFD
006FFEA4
0001E000
0000D000
ENDCHAR
STARTCHAR sterling
ENCODING 163
SWIDTH 758 0
DWIDTH 27 0
BBX 27 26 0 0
BITMAP
000000001BF900
00000000BFFF80
00000001F907E0
00000003C000F0
0000000B400074
0000000E000034
0000001D000000
0000002C000000
00000038000000
000000B9554000
000006FFFFE000
0016FFFFEBE000
003FFBF9000000
001501F0000000
000001D0000000
000001C0000000
00000280000000
00000340000000
00000740000000
00000F00000000
00002E00000000
1AAABE55000000
BFFFFFFFE40000
BFFFFFFFFC0000
7FFF8015500000
1BF80000000000
ENDCHAR
STARTCHAR currency
ENCODING 164
SWIDTH 618 0
DWIDTH 22 0
BBX 20 18 1 1
BITMAP
A400000004
7D006BE42D
2F87FFFEF4
0BFFEABFE0
02FD000BD0
02E00001E0
03C0000070
0780000034
0740000034
0740000074
07800000B4
03C00001E0
01E00007D0
01F8002F40
03FFAAFE00
0BC6BF9F40
0F400007D0
0D000001E0
ENDCHAR
STARTCHAR yen
ENCODING 165
SWIDTH 389 0
DWIDTH 14 0
BBX 15 28 0 -1
BITMAP
18000000
1E000014
0F4000F4
0B8002E0
03C007D0
02C00B80
01D01F40
00A02E00
00747D00
0038B800
002EF400
000FE000
000BD000
00078000
00078000
7FFFE900
15AFFF40
000B4000
000B4000
1AFFF900
2FFFFE00
001F5400
000F4000
001F0000
001F0000
001F0000
002F0000
00040000
ENDCHAR
STARTCHAR brokenbar
ENCODING 166
SWIDTH 117 0
DWIDTH 4 0
BBX 3 22 0 -1
BITMAP
14
38
3C
3C
3C
3C
3C
3C
38
14
14
7C
7C
7C
3C
3C
3C
3C
3C
2C
2C
04
ENDCHAR
STARTCHAR section
ENCODING 167
SWIDTH 514 0
DWIDTH 19 0
BBX 18 24 1 0
BITMAP
00AA940000
0BFFFE4000
1F956FE000
3D0002F800
3C00007D00
2D00000400
1F40000000
07FE950000
0BFFFFE400
3FEA55BF00
BD00000F80
B8000007C0
B8000007D0
7D00000BC0
2FE5556F40
07FFFFFD00
005AABF800
0000007F00
0000001F40
6000000F40
3D00000F40
1FD0007F00
07FFFFFD00
006BFF9000
ENDCHAR
STARTCHAR dieresis
ENCODING 168
SWIDTH 397 0
DWIDTH 14 0
BBX 10 4 2 15
BITMAP
290280
7F0BE0
7E0BD0
140140
ENDCHAR
STARTCHAR copyright
ENCODING 169
SWIDTH 667 0
DWIDTH 24 0
BBX 23 20 1 0
BITMAP
000BFF900000
007FFFFE0000
01F401BFD000
07800007F800
0F006FD0BE00
2D01FAF81F40
3C07803C0BC0
780E001C02D0
B41D000801E0
B02C000000B0
B03C000000B4
B03C00000074
B42D00000074
782E00000074
3D0F905540B4
1F47FFFFC2E0
0BE05AA96FC0
02FD001AFE00
007FFBFFE000
0006FFA50000
ENDCHAR
STARTCHAR ordfeminine
ENCODING 170
SWIDTH 266 0
DWIDTH 10 0
BBX 9 10 0 8
BITMAP
029000
027400
000D00
000600
0BEB00
390B40
600280
600080
295A40
06F900
ENDCHAR
STARTCHAR guillemotleft
ENCODING 171
SWIDTH 755 0
DWIDTH 27 0
BBX 25 17 0 0
BITMAP
00000000000780
00000000006F40
0000000601F800
0000006F4BD000
000002F87E0000
00001FD2F40000
0000BE1F800000
0002F4BD000000
001F82E0000000
00BD0B80000000
07E02FE4000000
1F803FFFE94000
7F4005BFFFF800
BFFE940056FE00
1BFFFFE0001900
0016AFFC000000
0000006C000000
ENDCHAR
STARTCHAR logicalnot
ENCODING 172
SWIDTH 369 0
DWIDTH 13 0
BBX 12 6 1 9
BITMAP
555555
BFFFFD
6A556D
00001D
00002D
00001C
ENDCHAR
STARTCHAR hyphen_
ENCODING 173
SWIDTH 375 0
DWIDTH 14 0
BBX 12 4 0 8
BITMAP
015554
1FFFFF
7FEAAB
140000
ENDCHAR
STARTCHAR registered
ENCODING 174
SWIDTH 708 0
DWIDTH 25 0
BBX 23 21 1 0
BITMAP
0005AA400000
002FFFF90000
00F956FF9000
03D0001BF400
0B405501FD00
1E2FFFF82F00
2CB9556F4B80
38A14007C3D0
7402D007D1E0
B002D00BC0F0
B002FAFE00B4
B001FA900074
B401F8000078
7801EF000078
3D00E7D00074
2F40E0B801F0
0FD0A01E4BD0
03F90007FF40
00BFA6BFF800
001BFFFA4000
000055400000
ENDCHAR
STARTCHAR macron
ENCODING 175
SWIDTH 287 0
DWIDTH 10 0
BBX 10 4 1 16
BITMAP
055500
7FFFD0
BFAAD0
500000
ENDCHAR
STARTCHAR degree
ENCODING 176
SWIDTH 254 0
DWIDTH 9 0
BBX 8 10 0 10
BITMAP
06E0
1EB8
300D
5006
8006
8006
900A
601D
29B8
0BE0
ENDCHAR
STARTCHAR plusminus
ENCODING 177
SWIDTH 459 0
DWIDTH 17 0
BBX 16 16 0 1
BITMAP
000E0000
000F0000
000B4000
00078000
0007C000
0007E500
01AFFFFE
7FFFFFFE
6A57E554
0002E000
0002E000
0001E000
0001E000
0056FFE8
07FFFFFE
0EA54014
ENDCHAR
STARTCHAR twosuperior
ENCODING 178
SWIDTH 296 0
DWIDTH 11 0
BBX 9 12 0 8
BITMAP
002800
009A00
008300
000240
000240
000240
000340
000700
100900
BE6800
7FFD40
1A5AC0
ENDCHAR
STARTCHAR threesuperior
ENCODING 179
SWIDTH 204 0
DWIDTH 7 0
BBX 7 12 0 10
BITMAP
6A40
A5A0
0030
00A0
1B80
2F80
01E0
0028
800C
E00C
296C
0BE4
ENDCHAR
STARTCHAR acute
ENCODING 180
SWIDTH 180 0
DWIDTH 7 0
BBX 6 6 0 14
BITMAP
0050
02E0
0B80
3E00
B800
6000
ENDCHAR
STARTCHAR mu
ENCODING 181
SWIDTH 501 0
DWIDTH 18 0
BBX 18 19 0 -2
BITMAP
2800000000
7800000000
7800003800
7400007C00
7400007C00
7800007D00
7800007D00
7C00007D00
7D00007D00
7E0000BD00
7F0001FE00
7F8003FF00
7BE00FDF40
76F97F4B80
74BFFD07C0
740AA003D0
7400000190
7400000000
7400000000
ENDCHAR
STARTCHAR paragraph
ENCODING 182
SWIDTH 413 0
DWIDTH 15 0
BBX 14 20 0 -1
BITMAP
00155400
02FFFF40
0FFFFF80
2FFFFFC0
3FFFF7C0
7FFFF2D0
7FFFF2D0
7FFFF2D0
3FFFF2E0
0656E2E0
0001E2E0
0000E2E0
0000E2E0
0000E2E0
0000E2E0
0000E2E0
0000E2D0
0000E2D0
0000F2C0
00005180
ENDCHAR
STARTCHAR periodcentered
ENCODING 183
SWIDTH 212 0
DWIDTH 8 0
BBX 4 5 2 6
BITMAP
14
BE
FF
FE
24
ENDCHAR
STARTCHAR cedilla
ENCODING 184
SWIDTH 445 0
DWIDTH 16 0
BBX 10 12 5 -11
BITMAP
240000
380000
380000
2C0000
1F9000
06FF40
0007D0
0001E0
6400E0
3E01E0
0FABC0
02FE00
ENDCHAR
STARTCHAR onesuperior
ENCODING 185
SWIDTH 197 0
DWIDTH 7 0
BBX 8 14 -1 8
BITMAP
0009
000D
001D
002C
00BC
02FC
0B78
2D38
7438
1074
0074
0070
0060
0060
ENDCHAR
STARTCHAR ordmasculine
ENCODING 186
SWIDTH 254 0
DWIDTH 9 0
BBX 8 10 0 10
BITMAP
06E0
1EB8
300D
5006
8006
8006
900A
601D
29B8
0BE0
ENDCHAR
STARTCHAR guillemotright
ENCODING 187
SWIDTH 659 0
DWIDTH 24 0
BBX 22 18 1 0
BITMAP
000050000000
5000F8000000
FC007F400000
7F800BF90000
0BF901BFE500
01BFE91BFFC0
0006FFC01BD0
00000BD00BC0
00000FC02F40
00002F40BD00
0000BD02F400
0007F41F8000
002F80BE0000
01FD07F40000
07E02F800000
2F80BD000000
BD00E0000000
E00000000000
ENDCHAR
STARTCHAR onequarter
ENCODING 188
SWIDTH 626 0
DWIDTH 23 0
BBX 21 28 0 -1
BITMAP
000001000000
000003400000
000003400000
000907000000
000D07000000
001D0A000000
002C0A000000
007C0D000000
01FC1C000000
07B82C000000
1D3838000000
787434000000
107474000000
0070B0000000
0070E0E00000
0060E1D00000
0051D2C00000
0002C3400180
000383400380
000743400B40
000743802F00
000B01D1BF00
000E00BFEB00
001D00150700
002C00000740
003800000740
003400000340
002000000000
ENDCHAR
STARTCHAR onehalf
ENCODING 189
SWIDTH 566 0
DWIDTH 20 0
BBX 19 27 0 -2
BITMAP
0006028000
000A028000
000E034000
000D034000
002D070000
00BD0B0000
01FD0A0000
07BC0D0000
1E3C1D0000
3C382C0000
B438380500
4078781FC0
00747424A0
0074B02070
0070E01034
0071D00034
0062D00034
0003C00074
0003800070
00074000A0
000B0000D0
000E3E4280
001D7FFF40
002C2FFFE8
00380555BC
0074000000
0020000000
ENDCHAR
STARTCHAR threequarters
ENCODING 190
SWIDTH 566 0
DWIDTH 20 0
BBX 20 28 0 -3
BITMAP
0000004000
0000028000
0000028000
0540034000
3FE0034000
2024070000
0024070000
00B00A0000
1BC00E0000
1BE01D0000
00781CA000
000D2CD000
500639C000
7406758005
1E5D724009
06F8B2401D
0000E2803C
0001D1C0BC
0002C0EBFC
0002C07F5C
000380041C
000740001D
000B00001D
000E00000C
001D000000
002D000000
0028000000
0014000000
ENDCHAR
STARTCHAR questiondown
ENCODING 191
SWIDTH 272 0
DWIDTH 10 0
BBX 10 27 1 0
BITMAP
B40000
B80000
100000
000000
000000
000000
000000
000000
000000
554000
BFE400
16F800
00B800
01F400
03E000
0BD000
1F8000
3E0000
7D0000
B80000
F40000
F00000
F00000
B40000
3E0190
1FFFC0
01A900
ENDCHAR
STARTCHAR Agrave
ENCODING 192
SWIDTH 562 0
DWIDTH 20 0
BBX 19 33 1 0
BITMAP
0007400000
0003E00000
0000F80000
00002D0000
0000040000
0001500000
002FFE0000
01F96F8000
03D002E000
0B4000B400
0E00003C00
1D00001D00
1C00000F00
2C00000B40
2800000780
3800000380
34000002C0
34000002D0
34000001D0
74000001E0
74000002E0
BFFFAAA7F0
FEAAABFFF0
78000000F0
38000000F0
38000000B4
3C000000B4
3C000000B4
3D000000F4
2D000000F4
2E000001F0
1E000001F0
0A000001D0
ENDCHAR
STARTCHAR Aacute
ENCODING 193
SWIDTH 562 0
DWIDTH 20 0
BBX 19 34 1 0
BITMAP
0000500000
0002D00000
001F800000
007D000000
00F4000000
0090000000
0001500000
002FFE0000
01F96F8000
03D002E000
0B4000B400
0E00003C00
1D00001D00
1C00000F00
2C00000B40
2800000780
3800000380
34000002C0
34000002D0
34000001D0
74000001E0
74000002E0
BFFFAAA7F0
FEAAABFFF0
78000000F0
38000000F0
38000000B4
3C000000B4
3C000000B4
3D000000F4
2D000000F4
2E000001F0
1E000001F0
0A000001D0
ENDCHAR
STARTCHAR Acircumflex
ENCODING 194
SWIDTH 562 0
DWIDTH 20 0
BBX 19 36 1 0
BITMAP
0001400000
0003D00000
0007F00000
000BF80000
001FFE0000
007D7F4000
02F40F8000
02D0078000
0001500000
002FFE0000
01F96F8000
03D002E000
0B4000B400
0E00003C00
1D00001D00
1C00000F00
2C00000B40
2800000780
3800000380
34000002C0
34000002D0
34000001D0
74000001E0
74000002E0
BFFFAAA7F0
FEAAABFFF0
78000000F0
38000000F0
38000000B4
3C000000B4
3C000000B4
3D000000F4
2D000000F4
2E000001F0
1E000001F0
0A000001D0
ENDCHAR
STARTCHAR Atilde
ENCODING 195
SWIDTH 562 0
DWIDTH 20 0
BBX 19 33 1 0
BITMAP
0050001000
07FE00B400
0F4BDBD000
0E01FF4000
0D00140000
0501500000
002FFE0000
01F96F8000
03D002E000
0B4000B400
0E00003C00
1D00001D00
1C00000F00
2C00000B40
2800000780
3800000380
34000002C0
34000002D0
34000001D0
74000001E0
74000002E0
BFFFAAA7F0
FEAAABFFF0
78000000F0
38000000F0
38000000B4
3C000000B4
3C000000B4
3D000000F4
2D000000F4
2E000001F0
1E000001F0
0A000001D0
ENDCHAR
STARTCHAR Adieresis
ENCODING 196
SWIDTH 562 0
DWIDTH 20 0
BBX 19 33 1 0
BITMAP
00780A4000
00FD1FC000
00FD1FC000
0014050000
0000000000
0001500000
002FFE0000
01F96F8000
03D002E000
0B4000B400
0E00003C00
1D00001D00
1C00000F00
2C00000B40
2800000780
3800000380
34000002C0
34000002D0
34000001D0
74000001E0
74000002E0
BFFFAAA7F0
FEAAABFFF0
78000000F0
38000000F0
38000000B4
3C000000B4
3C000000B4
3D000000F4
2D000000F4
2E000001F0
1E000001F0
0A000001D0
ENDCHAR
STARTCHAR Aring
ENCODING 197
SWIDTH 562 0
DWIDTH 20 0
BBX 19 33 1 0
BITMAP
0006A00000
002D780000
00300D0000
00700D0000
00342C0000
001FF40000
002FFE0000
01F96FC000
03D002E000
0B4000B400
0E00003C00
1D00001D00
1C00000F00
2C00000B40
2800000780
3800000380
34000002C0
34000002D0
34000001D0
74000001E0
74000002E0
BFFFAAA7F0
FEAAABFFF0
78000000F0
38000000F0
38000000B4
3C000000B4
3C000000B4
3D000000F4
2D000000F4
2E000001F0
1E000001F0
0A000001D0
ENDCHAR
STARTCHAR AE
ENCODING 198
SWIDTH 960 0
DWIDTH 35 0
BBX 33 28 1 0
BITMAP
000150000000000000
002FFE000000000000
01F96F800000000000
03D002E00000000000
0B4000B40000000000
0E00003C1555000000
1D00001D3FFFFFFD00
1C00000F7FEAAAAB00
2C00000B7800000000
28000007B800000000
38000003F800000000
34000002F800000000
34000002F800000000
34000001F800005500
74000001FC05AFFC00
74000002FFFFFF9000
BFFFAAA7FE95400000
FEAAABFFF800000000
78000000F400000000
38000000F400000000
38000000B400000000
3C000000B400000000
3C000000B400000000
3D000000F400000000
2D000000F400000000
2E000001FE56ABFF80
1E000001FFFFFFFF40
0A000001D6FFFA9400
ENDCHAR
STARTCHAR Ccedilla
ENCODING 199
SWIDTH 515 0
DWIDTH 19 0
BBX 18 35 0 -11
BITMAP
0000014000
00006FE000
0002FFF000
000BE4B000
002E40A000
00B800C000
01E0000000
0380000000
0B00000000
1D00000000
2C00000000
3800000000
3400000000
7400000000
7400000000
7400000000
3800000000
3C00000000
2D00000000
1E00000000
0F80001A90
07E56BFFC0
01FFFFE900
007FE50000
0028000000
0028000000
002C000000
000F940000
0002FF4000
000007D000
000000F000
002400F000
002E00F000
000BEAD000
0002FE4000
ENDCHAR
STARTCHAR Egrave
ENCODING 200
SWIDTH 524 0
DWIDTH 19 0
BBX 17 29 0 0
BITMAP
0007800000
0002E00000
0000BC0000
00002E0000
0000040000
0000000000
0540000000
2FFFFFFE00
2FFFEAAB80
2D00000000
2D00000000
2D00000000
2D00000000
2D00000000
2D00001500
2D016BFE00
7FFFFFE400
3FA9540000
3C00000000
3800000000
3800000000
3800000000
7800000000
7800000000
7800000000
7800000000
3E556AFF80
1FFFFFFF80
06FFFFA400
ENDCHAR
STARTCHAR Eacute
ENCODING 201
SWIDTH 524 0
DWIDTH 19 0
BBX 17 29 0 0
BITMAP
0000080000
00007C0000
0001F40000
000BD00000
000F400000
0008000000
0540000000
2FFFFFFE00
2FFFEAAB80
2D00000000
2D00000000
2D00000000
2D00000000
2D00000000
2D00001500
2D016BFE00
7FFFFFE400
3FA9540000
3C00000000
3800000000
3800000000
3800000000
7800000000
7800000000
7800000000
7800000000
3E556AFF80
1FFFFFFF80
06FFFFA400
ENDCHAR
STARTCHAR Ecircumflex
ENCODING 202
SWIDTH 524 0
DWIDTH 19 0
BBX 17 32 0 0
BITMAP
0000100000
0000780000
0000BE0000
0000FF4000
0002FFD000
000B87F000
003F01F400
003800B400
0000000000
0540000000
2FFFFFFE00
2FFFEAAB80
2D00000000
2D00000000
2D00000000
2D00000000
2D00000000
2D00001500
2D016BFE00
7FFFFFE400
3FA9540000
3C00000000
3800000000
3800000000
3800000000
7800000000
7800000000
7800000000
7800000000
3E556AFF80
1FFFFFFF80
06FFFFA400
ENDCHAR
STARTCHAR Edieresis
ENCODING 203
SWIDTH 524 0
DWIDTH 19 0
BBX 17 28 0 0
BITMAP
001D029000
007F0BE000
003F07E000
0014014000
0000000000
0540000000
2FFFFFFE00
2FFFEAAB80
2D00000000
2D00000000
2D00000000
2D00000000
2D00000000
2D00001500
2D016BFE00
7FFFFFE400
3FA9540000
3C00000000
3800000000
3800000000
3800000000
7800000000
7800000000
7800000000
7800000000
3E556AFF80
1FFFFFFF80
06FFFFA400
ENDCHAR
STARTCHAR Igrave
ENCODING 204
SWIDTH 167 0
DWIDTH 6 0
BBX 7 28 -1 0
BITMAP
A400
7E00
1F80
07C0
0040
0000
0000
0000
1800
1D00
1E00
0F00
0B40
0740
0780
03C0
02C0
02D0
02D0
01E0
01E0
01F0
00F0
00F0
00F4
00B4
00B4
0034
ENDCHAR
STARTCHAR Iacute
ENCODING 205
SWIDTH 167 0
DWIDTH 6 0
BBX 7 27 -1 0
BITMAP
0050
02D0
1F80
7E00
B400
9000
0000
1800
1D00
1E00
0F00
0B40
0740
0780
03C0
02C0
02D0
02D0
01E0
01E0
01F0
00F0
00F0
00F4
00B4
00B4
0034
ENDCHAR
STARTCHAR Icircumflex
ENCODING 206
SWIDTH 167 0
DWIDTH 6 0
BBX 10 32 -2 0
BITMAP
001000
00B400
00FD00
01FF00
07FFC0
1F8BE0
7E02F0
7800B0
000000
000000
000000
000000
060000
074000
078000
03C000
02D000
01D000
01E000
00F000
00B000
00B400
00B400
007800
007800
007C00
003C00
003C00
003D00
002D00
002D00
000D00
ENDCHAR
STARTCHAR Idieresis
ENCODING 207
SWIDTH 167 0
DWIDTH 6 0
BBX 10 25 -4 0
BITMAP
280780
BE0FD0
BE0FD0
140140
000000
006000
007400
007800
003C00
002D00
001D00
001E00
000F00
000B00
000B40
000B40
000780
000780
0007C0
0003C0
0003C0
0003D0
0002D0
0002D0
0000D0
ENDCHAR
STARTCHAR Eth
ENCODING 208
SWIDTH 741 0
DWIDTH 27 0
BBX 26 24 0 -1
BITMAP
005AA500000000
1BFFFFE4000000
7FA55FFF900000
24000B9BF80000
00000B807F4000
000007C00BE000
000003C001F800
000003C0007D00
000002C0001F00
000002D0400B80
00002BFFFD03C0
0000BFFFFD02D0
0000A5E00401E0
000000F00001E0
000000F00001E0
000000F40002E0
000000B40003D0
000000B4000BC0
000000B4002F40
0000006000BE00
000079401BF800
00003FFAFFD000
00000BFFFE0000
00000055400000
ENDCHAR
STARTCHAR Ntilde
ENCODING 209
SWIDTH 609 0
DWIDTH 22 0
BBX 20 25 1 0
BITMAP
0005000100
007FE00B40
00F4BEBD00
00E01FF400
00D0014000
1050000000
B400000000
7400000640
78000007C0
7C000007E0
7D000003F0
7E000001F4
7F000000F8
7F4000007C
7FC000002D
BFD000001E
B5E000000F
B0B400000F
B03C00000F
F01F00001E
F40B80002D
F402F400BC
F400FFABF4
F4002FFFD0
B00001A900
ENDCHAR
STARTCHAR Ograve
ENCODING 210
SWIDTH 609 0
DWIDTH 22 0
BBX 21 25 0 0
BITMAP
000039000000
00001F400000
00000BD00000
000001F00000
000000000000
000000000000
000000000000
000540000000
00BFF9000000
07FAFFE00000
0F4006FD0000
2D00006F8000
3C000007E000
78000000F800
740000003D00
740000001F00
740000000B40
380000000780
2D00000003C0
1F00000007C0
0F8000000B80
07F400006F00
01FE4016FC00
002FFFFFD000
0006BFA50000
ENDCHAR
STARTCHAR Oacute
ENCODING 211
SWIDTH 609 0
DWIDTH 22 0
BBX 21 25 0 0
BITMAP
000001800000
000007800000
00002F000000
0000B8000000
0001E0000000
000180000000
000000000000
000540000000
00BFF9000000
07FAFFE00000
0F4006FD0000
2D00006F8000
3C000007E000
78000000F800
740000003D00
740000001F00
740000000B40
380000000780
2D00000003C0
1F00000007C0
0F8000000B80
07F400006F00
01FE4016FC00
002FFFFFD000
0006BFA50000
ENDCHAR
STARTCHAR Ocircumflex
ENCODING 212
SWIDTH 609 0
DWIDTH 22 0
BBX 21 28 0 0
BITMAP
000140000000
0003D0000000
0007F0000000
000BF8000000
001FFE000000
007D7F400000
02F40F800000
02D007800000
000000000000
000000000000
000540000000
00BFF9000000
07FAFFE00000
0F4006FD0000
2D00006F8000
3C000007E000
78000000F800
740000003D00
740000001F00
740000000B40
380000000780
2D00000003C0
1F00000007C0
0F8000000B80
07F400006F00
01FE4016FC00
002FFFFFD000
0006BFA50000
ENDCHAR
STARTCHAR Otilde
ENCODING 213
SWIDTH 609 0
DWIDTH 22 0
BBX 21 24 0 0
BITMAP
001400040000
01FF802D0000
02D1FAF40000
03806FD00000
038005400000
004000000000
000540000000
00BFF9000000
07FAFFE00000
0F4006FD0000
2D00006F8000
3C000007E000
78000000F800
740000003D00
740000001F00
740000000B40
380000000780
2D00000003C0
1F00000007C0
0F8000000B80
07F400006F00
01FE4016FC00
002FFFFFD000
0006BFA50000
ENDCHAR
STARTCHAR Odieresis
ENCODING 214
SWIDTH 609 0
DWIDTH 22 0
BBX 21 24 0 0
BITMAP
000290680000
000BE0FD0000
0007E0BD0000
000140140000
000000000000
000000000000
000540000000
00BFF9000000
07FAFFE00000
0F4006FD0000
2D00006F8000
3C000007E000
78000000F800
740000003D00
740000001F00
740000000B40
380000000780
2D00000003C0
1F00000007C0
0F8000000B80
07F400006F00
01FE4016FC00
002FFFFFD000
0006BFA50000
ENDCHAR
STARTCHAR multiply
ENCODING 215
SWIDTH 448 0
DWIDTH 16 0
BBX 11 10 2 2
BITMAP
600020
F801F4
7E07E0
1FFF40
07FC00
02F800
07FE00
1F4F80
3D07D0
240140
ENDCHAR
STARTCHAR Oslash
ENCODING 216
SWIDTH 609 0
DWIDTH 22 0
BBX 21 27 0 -4
BITMAP
000000380000
000000780000
000000740000
000000B40000
000000B00000
000540E00000
00BFFAD00000
07FAFFE00000
0F400BFD0000
2D000BAF8000
3C000F07E000
78001E00F800
74002D003D00
74003C001F00
740078000B40
3800B4000780
2D01F00003C0
1F02E00007C0
0FC3D0000B80
07FBC0006F00
01FF8016FC00
006FFFFFD000
002FBFA50000
003D00000000
007C00000000
007400000000
002000000000
ENDCHAR
STARTCHAR Ugrave
ENCODING 217
SWIDTH 571 0
DWIDTH 21 0
BBX 19 25 1 0
BITMAP
0002900000
0000F80000
00007E0000
00000F4000
0000010000
1400000000
7C00000D00
B400001E00
A000001E00
E000002F00
E000001F00
E000001F00
E000000F00
E000000F00
B000000B40
B000000780
74000007C0
78000007D0
3C00000BE0
2D00001FF0
1F00007FF4
0B8002F9F8
07F96F907C
01FFFE002C
002FE00000
ENDCHAR
STARTCHAR Uacute
ENCODING 218
SWIDTH 571 0
DWIDTH 21 0
BBX 19 25 1 0
BITMAP
0000080000
00007C0000
0001F40000
000BD00000
000F400000
1408000000
7C00000D00
B400001E00
A000001E00
E000002F00
E000001F00
E000001F00
E000000F00
E000000F00
B000000B40
B000000780
74000007C0
78000007D0
3C00000BE0
2D00001FF0
1F00007FF4
0B8002F9F8
07F96F907C
01FFFE002C
002FE00000
ENDCHAR
STARTCHAR Ucircumflex
ENCODING 219
SWIDTH 571 0
DWIDTH 21 0
BBX 19 32 1 0
BITMAP
0000100000
0000780000
0000BD0000
0001FF4000
0003FFC000
000F8BE000
007E02F000
007800B000
0000000000
0000000000
0000000000
0000000000
1400000000
7C00000D00
B400001E00
A000001E00
E000002F00
E000001F00
E000001F00
E000000F00
E000000F00
B000000B40
B000000780
74000007C0
78000007D0
3C00000BE0
2D00001FF0
1F00007FF4
0B8002F9F8
07F96F907C
01FFFE002C
002FE00000
ENDCHAR
STARTCHAR Udieresis
ENCODING 220
SWIDTH 571 0
DWIDTH 21 0
BBX 19 24 1 0
BITMAP
001D029000
007F0BE000
003F07E000
0014014000
1400000000
7C00000D00
B400001E00
A000001E00
E000002F00
E000001F00
E000001F00
E000000F00
E000000F00
B000000B40
B000000780
74000007C0
78000007D0
3C00000BE0
2D00001FF0
1F00007FF4
0B8002F9F8
07F96F907C
01FFFE002C
002FE00000
ENDCHAR
STARTCHAR Yacute
ENCODING 221
SWIDTH 403 0
DWIDTH 15 0
BBX 14 31 0 -1
BITMAP
00000500
00002E00
0000B800
0003E000
000B8000
00060000
00000000
70000000
740000A0
3C0000E0
2E0000E0
1F4001E0
0BD003D0
02F407C0
00BE4B80
001FFF40
0002FF00
00003E00
00003D00
00007C00
0000B400
0000F000
0001E000
0001D000
0002D000
0002C000
0003C000
0003C000
0003C000
0003C000
00014000
ENDCHAR
STARTCHAR Thorn
ENCODING 222
SWIDTH 497 0
DWIDTH 18 0
BBX 17 28 1 -6
BITMAP
2800000000
7C00000000
7C00000000
7C00000000
7C00000000
7C00000000
7C00000000
3C00000000
3800000000
3800000000
3EFFA40000
3FFFFE4000
3F406FE000
3E0001F800
2D00003E00
2D00001F00
2D00000F00
2F00000F40
2F80002F00
2FF501BE00
2EFFFFF800
1D1BFE9000
1D00000000
1E00000000
1E00000000
1E00000000
1E00000000
0100000000
ENDCHAR
STARTCHAR germandbls
ENCODING 223
SWIDTH 590 0
DWIDTH 21 0
BBX 20 30 1 -5
BITMAP
2FE9000000
7FFFD00000
BE96FC0000
F8002F0000
F4000B4000
B800074000
B8000B4000
B8001E0000
7801BC0000
7C2FF40000
3C2FF80000
3C0BFF8000
3C006FF400
2C0001BD00
2D00001F80
1D000002E0
1D000000B4
0D0000007C
0E0000003D
0E0000002E
0E0000007D
0E000006FC
0F03FFFFE0
0F03FFE900
0F00000000
0F00000000
1F00000000
1F40000000
2F40000000
0640000000
ENDCHAR
STARTCHAR agrave
ENCODING 224
SWIDTH 505 0
DWIDTH 18 0
BBX 17 23 0 0
BITMAP
000A400000
0007D00000
0001F40000
00007C0000
0000000000
000BE00000
002FFE0000
00286F8000
000007E000
000000F400
0000007C00
0000003E00
006FFA6F00
07FFAFFF40
1FD001FF80
3D00002F80
7800000BC0
74000003C0
38000001C0
2E00000040
0FE95ABFC0
02FFFFFE40
001AFE9000
ENDCHAR
STARTCHAR aacute
ENCODING 225
SWIDTH 505 0
DWIDTH 18 0
BBX 17 25 0 0
BITMAP
0000080000
00007C0000
0002F40000
000BD00000
001F000000
0018000000
0000000000
000BE00000
002FFE0000
00286F8000
000007E000
000000F400
0000007C00
0000003E00
006FFA6F00
07FFAFFF40
1FD001FF80
3D00002F80
7800000BC0
74000003C0
38000001C0
2E00000040
0FE95ABFC0
02FFFFFE40
001AFE9000
ENDCHAR
STARTCHAR acircumflex
ENCODING 226
SWIDTH 505 0
DWIDTH 18 0
BBX 17 27 0 0
BITMAP
0000100000
0000B40000
0000FD0000
0001FF0000
0007FFC000
001F8BE000
007E02F000
007800B000
0000000000
000BE00000
002FFE0000
00286F8000
000007E000
000000F400
0000007C00
0000003E00
006FFA6F00
07FFAFFF40
1FD001FF80
3D00002F80
7800000BC0
74000003C0
38000001C0
2E00000040
0FE95ABFC0
02FFFFFE40
001AFE9000
ENDCHAR
STARTCHAR atilde
ENCODING 227
SWIDTH 505 0
DWIDTH 18 0
BBX 17 25 0 0
BITMAP
0054000400
02FF407C00
0782E6E000
07007F8000
0700050000
0100000000
0000000000
000BE00000
002FFE0000
00286F8000
000007E000
000000F400
0000007C00
0000003E00
006FFA6F00
07FFAFFF40
1FD001FF80
3D00002F80
7800000BC0
74000003C0
38000001C0
2E00000040
0FE95ABFC0
02FFFFFE40
001AFE9000
ENDCHAR
STARTCHAR adieresis
ENCODING 228
SWIDTH 505 0
DWIDTH 18 0
BBX 17 23 0 0
BITMAP
001D028000
007F0BE000
007F0BE000
0014014000
0000000000
000BE00000
002FFE0000
00286F8000
000007E000
000000F400
0000007C00
0000003E00
006FFA6F00
07FFAFFF40
1FD001FF80
3D00002F80
7800000BC0
74000003C0
38000001C0
2E00000040
0FE95ABFC0
02FFFFFE40
001AFE9000
ENDCHAR
STARTCHAR aring
ENCODING 229
SWIDTH 505 0
DWIDTH 18 0
BBX 17 24 0 0
BITMAP
0000540000
0007FD0000
000D0B0000
001C034000
000C070000
000BAD0000
000BF40000
002FFE0000
00286F8000
000007E000
000000F400
0000007C00
0000003E00
006FFA6F00
07FFAFFF40
1FD001FF80
3D00002F80
7800000BC0
74000003C0
38000001C0
2E00000040
0FE95ABFC0
02FFFFFE40
001AFE9000
ENDCHAR
STARTCHAR ae
ENCODING 230
SWIDTH 881 0
DWIDTH 32 0
BBX 31 19 0 -1
BITMAP
000BE00001AA4000
002FFE000BFFD000
00286F803E41F400
000007E0B8007800
000000F5E0003C00
0000007FC0002C00
0000003F80003C00
006FFA6F8001F800
07FFAFFF401BE000
1FD001FFAABF8000
3D00002FAFF80000
7800000BC0000000
74000003C0000000
38000002D0000000
2E000001F4000000
0FE95ABFFE400000
02FFFFFE5FFA56A8
001AFE9002FFFFE0
00000000001AA900
ENDCHAR
STARTCHAR ccedilla
ENCODING 231
SWIDTH 449 0
DWIDTH 16 0
BBX 15 27 0 -11
BITMAP
001AE400
00BFBF40
03E00B80
0B400280
1E000180
3D000000
3C000000
78000000
78000000
78000000
3C000000
2E000000
1F800000
0BF90000
01FFFFFC
003FFFE4
00380000
00380000
002D0000
000BA500
0001BF80
000002E0
000000F0
007800F0
002F41E0
000BFF80
0001A900
ENDCHAR
STARTCHAR egrave
ENCODING 232
SWIDTH 515 0
DWIDTH 19 0
BBX 18 24 0 0
BITMAP
0029000000
000F800000
0007E00000
0001F00000
0000100000
0006900000
007FFD0000
02F91F4000
078007C000
0F0002C000
2D0002D000
3C0002C000
38000B8000
78007F4000
799BFD0000
79FF900000
3C54000000
3C00000000
2E00000000
0F40000000
07E0000000
01FE955590
002FFFFF40
0006BFA400
ENDCHAR
STARTCHAR eacute
ENCODING 233
SWIDTH 515 0
DWIDTH 19 0
BBX 18 26 0 0
BITMAP
0000140000
0000B80000
0007E00000
001F800000
002E000000
0024000000
0000000000
0006900000
007FFD0000
02F91F4000
078007C000
0F0002C000
2D0002D000
3C0002C000
38000B8000
78007F4000
799BFD0000
79FF900000
3C54000000
3C00000000
2E00000000
0F40000000
07E0000000
01FE955590
002FFFFF40
0006BFA400
ENDCHAR
STARTCHAR ecircumflex
ENCODING 234
SWIDTH 515 0
DWIDTH 19 0
BBX 18 27 0 0
BITMAP
0000100000
0000780000
0000BD0000
0001FF4000
0003FFC000
000F8BE000
007E02F000
007800B000
0006900000
007FFD0000
02F91F4000
078007C000
0F0002C000
2D0002D000
3C0002C000
38000B8000
78007F4000
799BFD0000
79FF900000
3C54000000
3C00000000
2E00000000
0F40000000
07E0000000
01FE955590
002FFFFF40
0006BFA400
ENDCHAR
STARTCHAR edieresis
ENCODING 235
SWIDTH 515 0
DWIDTH 19 0
BBX 18 23 0 0
BITMAP
00780A4000
00FD1FC000
00FD1FC000
0014050000
0006900000
007FFD0000
02F91F4000
078007C000
0F0002C000
2D0002D000
3C0002C000
38000B8000
78007F4000
799BFD0000
79FF900000
3C54000000
3C00000000
2E00000000
0F40000000
07E0000000
01FE955590
002FFFFF40
0006BFA400
ENDCHAR
STARTCHAR igrave
ENCODING 236
SWIDTH 174 0
DWIDTH 6 0
BBX 6 22 0 0
BITMAP
1000
7D00
2F40
07D0
0190
0000
0A00
0B00
0B00
0B00
0B00
0B40
0B40
0B80
0BC0
07C0
07D0
07D0
03E0
03E0
02E0
01D0
ENDCHAR
STARTCHAR iacute
ENCODING 237
SWIDTH 174 0
DWIDTH 6 0
BBX 7 23 -1 0
BITMAP
0010
00B0
07D0
1F40
7D00
7400
0000
0280
02C0
02C0
02C0
02C0
02D0
02D0
02E0
02F0
01F0
01F4
01F4
00F8
00F8
00B8
0074
ENDCHAR
STARTCHAR icircumflex
ENCODING 238
SWIDTH 174 0
DWIDTH 6 0
BBX 10 27 -2 0
BITMAP
001000
00B800
00FD00
01FF40
07FFC0
1F8BE0
7E02F0
7800B0
000000
000000
000000
00A000
00B000
00B000
00B000
00B000
00B400
00B400
00B800
00BC00
007C00
007D00
007D00
003E00
003E00
002E00
001D00
ENDCHAR
STARTCHAR idieresis
ENCODING 239
SWIDTH 174 0
DWIDTH 6 0
BBX 10 21 -2 0
BITMAP
3D0780
BE0FD0
7E0FD0
140100
000000
00A000
00B000
00B000
00B000
00B000
00B400
00B400
00B800
00BC00
007C00
007D00
007D00
003E00
003E00
002E00
001D00
ENDCHAR
STARTCHAR eth
ENCODING 240
SWIDTH 407 0
DWIDTH 15 0
BBX 14 20 1 -1
BITMAP
7F900000
FFF80000
90BF06C0
000BEFD0
001BFF40
01FFFC00
01F82D00
00401F00
00594B40
0BFFFF80
2F406FC0
B80007C0
F00002C0
E00002C0
E00002C0
F4000780
7D001F40
2FEAFE00
06FFF800
00154000
ENDCHAR
STARTCHAR ntilde
ENCODING 241
SWIDTH 459 0
DWIDTH 17 0
BBX 15 23 1 0
BITMAP
05000100
2FE00B40
B47EBD00
E00BF400
A0015000
10000000
00000000
001BE000
41FFFD00
EBD47F00
FE000F80
FC0007C0
F80002E0
F40001F0
F40000F4
B80000B4
B80000B8
BC000078
7C00007C
3D00007C
2E000078
1E000078
06000074
ENDCHAR
STARTCHAR ograve
ENCODING 242
SWIDTH 487 0
DWIDTH 18 0
BBX 17 20 0 0
BITMAP
0003800000
0002F00000
0000BD0000
00002E0000
0000040000
0006FE4000
00BFFFE000
02F90BF800
0B8000BD00
2E00002E00
3C00000B40
7800000B40
7400000B80
7800000B40
3800001F40
3D00007F00
1F4001FD00
0BE41BF400
02FFFFD000
006FF90000
ENDCHAR
STARTCHAR oacute
ENCODING 243
SWIDTH 487 0
DWIDTH 18 0
BBX 17 22 0 0
BITMAP
0000080000
00007C0000
0002F00000
000B800000
001E000000
0018000000
0000000000
0006FE4000
00BFFFE000
02F90BF800
0B8000BD00
2E00002E00
3C00000B40
7800000B40
7400000B80
7800000B40
3800001F40
3D00007F00
1F4001FD00
0BE41BF400
02FFFFD000
006FF90000
ENDCHAR
STARTCHAR ocircumflex
ENCODING 244
SWIDTH 487 0
DWIDTH 18 0
BBX 17 24 0 0
BITMAP
0000400000
0001E00000
0002F80000
0003FD0000
000BFF4000
002F1FC000
00FC07D000
00E001D000
0000000000
0006FE4000
00BFFFE000
02F90BF800
0B8000BD00
2E00002E00
3C00000B40
7800000B40
7400000B80
7800000B40
3800001F40
3D00007F00
1F4001FD00
0BE41BF400
02FFFFD000
006FF90000
ENDCHAR
STARTCHAR otilde
ENCODING 245
SWIDTH 487 0
DWIDTH 18 0
BBX 17 20 0 0
BITMAP
0014000400
01FF403C00
03C2F6F400
07407FC000
0340050000
0106FE4000
00BFFFE000
02F90BF800
0B8000BD00
2E00002E00
3C00000B40
7800000B40
7400000B80
7800000B40
3800001F40
3D00007F00
1F4001FD00
0BE41BF400
02FFFFD000
006FF90000
ENDCHAR
STARTCHAR odieresis
ENCODING 246
SWIDTH 487 0
DWIDTH 18 0
BBX 17 19 0 0
BITMAP
0028078000
00BE0FD000
00BE0FD000
0014064000
0006FE4000
00BFFFE000
02F90BF800
0B8000BD00
2E00002E00
3C00000B40
7800000B40
7400000B80
7800000B40
3800001F40
3D00007F00
1F4001FD00
0BE41BF400
02FFFFD000
006FF90000
ENDCHAR
STARTCHAR divide
ENCODING 247
SWIDTH 335 0
DWIDTH 12 0
BBX 10 10 1 2
BITMAP
00A000
00B400
001000
15AA40
7FFFE0
694150
000000
001000
00B000
001000
ENDCHAR
STARTCHAR oslash
ENCODING 248
SWIDTH 487 0
DWIDTH 18 0
BBX 17 17 0 0
BITMAP
0000005000
000001E000
0006BFD000
007FFFE000
02F95FF800
0B802EBD00
1E007D2E00
3C00F80F40
7802F00B40
7407D00B80
740F800B40
782F001F40
3D7D007F00
1FF801FD00
0BF41BF400
0BFFFFD000
0B6FF90000
ENDCHAR
STARTCHAR ugrave
ENCODING 249
SWIDTH 501 0
DWIDTH 18 0
BBX 18 24 0 0
BITMAP
0078000000
002E000000
000BC00000
0002E00000
0000400000
0000000000
0000000000
1400000000
3800000000
7800002400
7400007C00
7400007C00
7400007D00
7800007D00
3C00007D00
3C00007D00
2D00007D00
1F0000FE00
0F4002FF00
07D00BDF40
02F42F0780
00BFFC03C0
001BE003D0
00000002D0
ENDCHAR
STARTCHAR uacute
ENCODING 250
SWIDTH 501 0
DWIDTH 18 0
BBX 18 25 0 0
BITMAP
0000080000
00007C0000
0002F40000
000BD00000
001F000000
0018000000
0000000000
0000000000
1400000000
3800000000
7800002400
7400007C00
7400007C00
7400007D00
7800007D00
3C00007D00
3C00007D00
2D00007D00
1F0000FE00
0F4002FF00
07D00BDF40
02F42F0780
00BFFC03C0
001BE003D0
00000002D0
ENDCHAR
STARTCHAR ucircumflex
ENCODING 251
SWIDTH 501 0
DWIDTH 18 0
BBX 18 27 0 0
BITMAP
0000100000
0000B40000
0000FD0000
0002FF0000
0007FF8000
001F4BE000
007E02F000
007400B000
0000000000
0000000000
1400000000
3800000000
7800002400
7400007C00
7400007C00
7400007D00
7800007D00
3C00007D00
3C00007D00
2D00007D00
1F0000FE00
0F4002FF00
07D00BDF40
02F42F0780
00BFFC03C0
001BE003D0
00000002D0
ENDCHAR
STARTCHAR udieresis
ENCODING 252
SWIDTH 501 0
DWIDTH 18 0
BBX 18 22 0 0
BITMAP
00A40A0000
01FC2F8000
01FC2F8000
0050050000
0000000000
1400000000
3800000000
7800002400
7400007C00
7400007C00
7400007D00
7800007D00
3C00007D00
3C00007D00
2D00007D00
1F0000FE00
0F4002FF00
07D00BDF40
02F42F0780
00BFFC03C0
001BE003D0
00000002D0
ENDCHAR
STARTCHAR yacute
ENCODING 253
SWIDTH 487 0
DWIDTH 18 0
BBX 17 42 0 -18
BITMAP
0000180000
0000780000
0002F00000
000B800000
001E000000
0018000000
0000000000
0000000000
1000000800
7000000C00
7000000D00
7400000E00
7400000E00
7800000F00
3C00000F00
2D00000F40
2E00000F40
0F00000F80
0B40001F80
03C0007F80
01F402FF80
007FAF9380
001BFD0280
00005002C0
00000002C0
00000002C0
00000002C0
00000002C0
00000003C0
0000000380
0000000380
0000000780
0000000740
0000000B40
1C00000B00
1F00000F00
0FC0001E00
07F4003D00
01FE00B800
002FEBF000
0006FFD000
0000190000
ENDCHAR
STARTCHAR thorn
ENCODING 254
SWIDTH 520 0
DWIDTH 19 0
BBX 17 25 1 -7
BITMAP
3800000000
7800000000
7400000000
7400000000
B001540000
B0BFFFD000
BBFEABF800
BF90007E00
BD00001F40
B800000780
B8000003C0
B8000003C0
B800000BC0
BFA5016F80
FFFFFFFE00
F5BFFFE400
F400000000
F400000000
F400000000
F400000000
F400000000
F400000000
F400000000
B400000000
6400000000
ENDCHAR
STARTCHAR ydieresis
ENCODING 255
SWIDTH 487 0
DWIDTH 18 0
BBX 17 39 0 -18
BITMAP
00740A4000
01FC2F8000
00FC1F8000
0050050000
0000000000
1000000800
7000000C00
7000000D00
7400000E00
7400000E00
7800000F00
3C00000F00
2D00000F40
2E00000F40
0F00000F80
0B40001F80
03C0007F80
01F402FF80
007FAF9380
001BFD0280
00005002C0
00000002C0
00000002C0
00000002C0
00000002C0
00000003C0
0000000380
0000000380
0000000780
0000000740
0000000B40
1C00000B00
1F00000F00
0FC0001E00
07F4003D00
01FE00B800
002FEBF000
0006FFD000
0000190000
ENDCHAR
STARTCHAR Amacron
ENCODING 256
SWIDTH 562 0
DWIDTH 20 0
BBX 19 33 1 0
BITMAP
0015540000
01FFFF4000
02FEAB4000
0140000000
0000000000
0001500000
002FFE0000
01F96F8000
03D002E000
0B4000B400
0E00003C00
1D00001D00
1C00000F00
2C00000B40
2800000780
3800000380
34000002C0
34000002D0
34000001D0
74000001E0
74000002E0
BFFFAAA7F0
FEAAABFFF0
78000000F0
38000000F0
38000000B4
3C000000B4
3C000000B4
3D000000F4
2D000000F4
2E000001F0
1E000001F0
0A000001D0
ENDCHAR
STARTCHAR amacron
ENCODING 257
SWIDTH 505 0
DWIDTH 18 0
BBX 17 24 0 0
BITMAP
0005550000
007FFFC000
00FFAAD000
0050000000
0000000000
0000000000
000BE00000
002FFE0000
00286F8000
000007E000
000000F400
0000007C00
0000003E00
006FFA6F00
07FFAFFF40
1FD001FF80
3D00002F80
7800000BC0
74000003C0
38000001C0
2E00000040
0FE95ABFC0
02FFFFFE40
001AFE9000
ENDCHAR
STARTCHAR Abreve
ENCODING 258
SWIDTH 562 0
DWIDTH 20 0
BBX 19 34 1 0
BITMAP
0008034000
000E074000
0007FE0000
0000540000
0000000000
0000000000
0001500000
002FFE0000
01F96F8000
03D002E000
0B4000B400
0E00003C00
1D00001D00
1C00000F00
2C00000B40
2800000780
3800000380
34000002C0
34000002D0
34000001D0
74000001E0
74000002E0
BFFFAAA7F0
FEAAABFFF0
78000000F0
38000000F0
38000000B4
3C000000B4
3C000000B4
3D000000F4
2D000000F4
2E000001F0
1E000001F0
0A000001D0
ENDCHAR
STARTCHAR abreve
ENCODING 259
SWIDTH 505 0
DWIDTH 18 0
BBX 17 23 0 0
BITMAP
00100A0000
00281E0000
000FF80000
0001500000
0000000000
000BE00000
002FFE0000
00286F8000
000007E000
000000F400
0000007C00
0000003E00
006FFA6F00
07FFAFFF40
1FD001FF80
3D00002F80
7800000BC0
74000003C0
38000001C0
2E00000040
0FE95ABFC0
02FFFFFE40
001AFE9000
ENDCHAR
STARTCHAR Aogonek
ENCODING 260
SWIDTH 562 0
DWIDTH 20 0
BBX 19 33 1 -5
BITMAP
0001500000
002FFE0000
01F96F8000
03D002E000
0B4000B400
0E00003C00
1D00001D00
1C00000F00
2C00000B40
2800000780
3800000380
34000002C0
34000002D0
34000001D0
74000001E0
74000002E0
BFFFAAA7F0
FEAAABFFF0
78000000F0
38000000F0
38000000B4
3C000000B4
3C000000B4
3D000000F4
2D000000F4
2E000001F0
1E000002F0
0A00002FD0
0000007D00
000000B000
000000F000
000000BD40
0000002FFC
ENDCHAR
STARTCHAR aogonek
ENCODING 261
SWIDTH 505 0
DWIDTH 18 0
BBX 17 23 0 -5
BITMAP
000BE00000
002FFE0000
00286F8000
000007E000
000000F400
0000007C00
0000003E00
006FFA6F00
07FFAFFF40
1FD001FF80
3D00002F80
7800000BC0
74000003C0
38000001C0
2E00000040
0FE95ABFC0
02FFFFFE40
001AFFD000
00000F0000
00000E0000
00000F9000
000006FF80
0000000500
ENDCHAR
STARTCHAR Cacute
ENCODING 262
SWIDTH 515 0
DWIDTH 19 0
BBX 18 30 0 0
BITMAP
0000008000
000007C000
00002F4000
0000BC0000
0001E00000
0001800000
0000014000
00006FE000
0002FFF000
000BE4B000
002E40A000
00B800C000
01E0000000
0380000000
0B00000000
1D00000000
2C00000000
3800000000
3400000000
7400000000
7400000000
7400000000
3800000000
3C00000000
2D00000000
1E00000000
0F80001A90
07E56BFFC0
01FFFFE900
006FE50000
ENDCHAR
STARTCHAR cacute
ENCODING 263
SWIDTH 449 0
DWIDTH 16 0
BBX 15 24 0 0
BITMAP
00000500
00002D00
0001F800
0007D000
000F4000
00090000
00000000
00000000
001BF800
00BEBF40
03D00780
0F400280
1E000140
3C000000
3C000000
78000000
78000000
78000000
3C000000
2E000000
1F800000
07F94000
01FFFFFC
001BFFE4
ENDCHAR
STARTCHAR Ccircumflex
ENCODING 264
SWIDTH 515 0
DWIDTH 19 0
BBX 18 32 0 0
BITMAP
0000100000
0000780000
0000BD0000
0001FF4000
0003FFC000
000F8BE000
007E02F000
007800B000
0000014000
00006FE000
0002FFF000
000BE4B000
002E40A000
00B800C000
01E0000000
0380000000
0B00000000
1D00000000
2C00000000
3800000000
3400000000
7400000000
7400000000
7400000000
3800000000
3C00000000
2D00000000
1E00000000
0F80001A90
07E56BFFC0
01FFFFE900
006FE50000
ENDCHAR
STARTCHAR ccircumflex
ENCODING 265
SWIDTH 449 0
DWIDTH 16 0
BBX 15 27 0 0
BITMAP
00004000
0002D000
0003F400
0007FC00
001FFE00
007E2F80
01F80BC0
01D002C0
00000000
00000000
00000000
001BF800
00BEBF40
03D00780
0F400280
1E000140
3C000000
3C000000
78000000
78000000
78000000
3C000000
2E000000
1F800000
07F94000
01FFFFFC
001BFFE4
ENDCHAR
STARTCHAR Cdotaccent
ENCODING 266
SWIDTH 515 0
DWIDTH 19 0
BBX 18 28 0 0
BITMAP
0000640000
0000780000
0000780000
0000100000
0000014000
00006FE000
0002FFF000
000BE4B000
002E40A000
00B800C000
01E0000000
0380000000
0B00000000
1D00000000
2C00000000
3800000000
3400000000
7400000000
7400000000
7400000000
3800000000
3C00000000
2D00000000
1E00000000
0F80001A90
07E56BFFC0
01FFFFE900
006FE50000
ENDCHAR
STARTCHAR cdotaccent
ENCODING 267
SWIDTH 449 0
DWIDTH 16 0
BBX 15 20 0 0
BITMAP
00024000
0007C000
0003C000
00014000
001BF800
00BEBF40
03D00780
0F400280
1E000140
3C000000
3C000000
78000000
78000000
78000000
3C000000
2E000000
1F800000
07F94000
01FFFFFC
001BFFE4
ENDCHAR
STARTCHAR Ccaron
ENCODING 268
SWIDTH 515 0
DWIDTH 19 0
BBX 18 29 0 0
BITMAP
000A401900
0002E5BD00
00007FF400
00000F8000
0000050000
0000014000
00006FE000
0002FFF000
000BE4B000
002E40A000
00B800C000
01E0000000
0380000000
0B00000000
1D00000000
2C00000000
3800000000
3400000000
7400000000
7400000000
7400000000
3800000000
3C00000000
2D00000000
1E00000000
0F80001A90
07E56BFFC0
01FFFFE900
006FE50000
ENDCHAR
STARTCHAR ccaron
ENCODING 269
SWIDTH 449 0
DWIDTH 16 0
BBX 15 22 0 0
BITMAP
01900680
007D2F80
000BFD00
0002E000
00004000
00000000
001BF800
00BEBF40
03D00780
0F400280
1E000140
3C000000
3C000000
78000000
78000000
78000000
3C000000
2E000000
1F800000
07F94000
01FFFFFC
001BFFE4
ENDCHAR
STARTCHAR Dcaron
ENCODING 270
SWIDTH 741 0
DWIDTH 27 0
BBX 26 28 0 -1
BITMAP
00006800A00000
00001F87E00000
000002FF800000
000000BD000000
005AA510000000
1BFFFFE4000000
7FA55FFF900000
24000B9BF80000
000007807F4000
000003800BE000
000003C001F800
000002C0007D00
000002D0001F00
000001D0000B80
000001E00003C0
000001E00002D0
000001F00001E0
000000F00001E0
000000F40001E0
000000F40002E0
000000F40003D0
000000F4000BC0
000000B4002F40
0000006000BE00
000079401BF800
00003FFAFFD000
00000BFFFE0000
00000055400000
ENDCHAR
STARTCHAR dcaron
ENCODING 271
SWIDTH 582 0
DWIDTH 21 0
BBX 21 27 0 0
BITMAP
000000000D00
000000900E00
000001F00F00
000000F80F00
000000FC0F40
000000BD0B40
0000007E0B40
0000003E0740
0000002F0100
0000002F4000
0000001F4000
00BF901F8000
02FFF90F8000
0BFABF8F8000
1FD00BFFC000
2F0000BFC000
3E00002FC000
7C00000FC000
7C00001FD000
7C00002FD000
7C00003FD000
3D0000BFD000
2E0002F7E000
1F401FD2E000
0BE6FF41F000
03FFF8005000
00BF80000000
ENDCHAR
STARTCHAR Dcroat
ENCODING 272
SWIDTH 741 0
DWIDTH 27 0
BBX 26 24 0 -1
BITMAP
005AA500000000
1BFFFFE4000000
7FA55FFF900000
24000B9BF80000
000007807F4000
000003800BE000
000003C001F800
000002C0007D00
000002D0001F00
000001D0000B80
000005E40003C0
0000BFFF4002D0
0001FFFF8001E0
000150F00001E0
000000F40001E0
000000F40002E0
000000F40003D0
000000F4000BC0
000000B4002F40
0000006000BE00
000079401BF800
00003FFAFFD000
00000BFFFE0000
00000055400000
ENDCHAR
STARTCHAR dcroat
ENCODING 273
SWIDTH 524 0
DWIDTH 19 0
BBX 19 26 0 0
BITMAP
000000D000
000001F000
000000F800
000000FC00
000000BE50
00007FFFF8
0001FFFFBC
0001542F00
0000002F40
0000001F40
00BFD00F80
03FFFD0F80
0BF9BF9F80
1F8007FFC0
2F0000BFC0
3D00002FC0
7C00000FD0
7C00001FD0
7C00002FD0
7C00007FD0
3D0000FFE0
2E0002F7E0
1F401FD2E0
0BE6FF41F0
02FFF80050
00BF800000
ENDCHAR
STARTCHAR Emacron
ENCODING 274
SWIDTH 524 0
DWIDTH 19 0
BBX 17 27 0 0
BITMAP
0005554000
003FFFD000
007FAAE000
0010000000
0540000000
2FFFFFFE00
2FFFEAAB80
2D00000000
2D00000000
2D00000000
2D00000000
2D00000000
2D00001500
2D016BFE00
7FFFFFE400
3FA9540000
3C00000000
3800000000
3800000000
3800000000
7800000000
7800000000
7800000000
7800000000
3E556AFF80
1FFFFFFF80
06FFFFA400
ENDCHAR
STARTCHAR emacron
ENCODING 275
SWIDTH 515 0
DWIDTH 19 0
BBX 18 24 0 0
BITMAP
0005554000
003FFFD000
007FAAE000
0050000000
0000000000
0006900000
007FFD0000
02F91F4000
078007C000
0F0002C000
2D0002D000
3C0002C000
38000B8000
78007F4000
799BFD0000
79FF900000
3C54000000
3C00000000
2E00000000
0F40000000
07E0000000
01FE955590
002FFFFF40
0006BFA400
ENDCHAR
STARTCHAR Ebreve
ENCODING 276
SWIDTH 524 0
DWIDTH 19 0
BBX 17 28 0 0
BITMAP
0004034000
000D0B0000
000BFD0000
0001500000
0000000000
0540000000
2FFFFFFE00
2FFFEAAB80
2D00000000
2D00000000
2D00000000
2D00000000
2D00000000
2D00001500
2D016BFE00
7FFFFFE400
3FA9540000
3C00000000
3800000000
3800000000
3800000000
7800000000
7800000000
7800000000
7800000000
3E556AFF80
1FFFFFFF80
06FFFFA400
ENDCHAR
STARTCHAR ebreve
ENCODING 277
SWIDTH 515 0
DWIDTH 19 0
BBX 18 24 0 0
BITMAP
000200D000
000342C000
0002FF4000
0000540000
0000000000
0006900000
007FFD0000
02F91F4000
078007C000
0F0002C000
2D0002D000
3C0002C000
38000B8000
78007F4000
799BFD0000
79FF900000
3C54000000
3C00000000
2E00000000
0F40000000
07E0000000
01FE955590
002FFFFF40
0006BFA400
ENDCHAR
STARTCHAR Edotaccent
ENCODING 278
SWIDTH 524 0
DWIDTH 19 0
BBX 17 27 0 0
BITMAP
0001900000
0001F00000
0000F00000
0000500000
0540000000
2FFFFFFE00
2FFFEAAB80
2D00000000
2D00000000
2D00000000
2D00000000
2D00000000
2D00001500
2D016BFE00
7FFFFFE400
3FA9540000
3C00000000
3800000000
3800000000
3800000000
7800000000
7800000000
7800000000
7800000000
3E556AFF80
1FFFFFFF80
06FFFFA400
ENDCHAR
STARTCHAR edotaccent
ENCODING 279
SWIDTH 515 0
DWIDTH 19 0
BBX 18 24 0 0
BITMAP
0002400000
0007C00000
0003C00000
0001400000
0000000000
0006900000
007FFD0000
02F91F4000
078007C000
0F0002C000
2D0002D000
3C0002C000
38000B8000
78007F4000
799BFD0000
79FF900000
3C54000000
3C00000000
2E00000000
0F40000000
07E0000000
01FE955590
002FFFFF40
0006BFA400
ENDCHAR
STARTCHAR Eogonek
ENCODING 280
SWIDTH 524 0
DWIDTH 19 0
BBX 17 28 0 -5
BITMAP
0540000000
2FFFFFFE00
2FFFEAAB80
2D00000000
2D00000000
2D00000000
2D00000000
2D00000000
2D00001500
2D016BFE00
7FFFFFE400
3FA9540000
3C00000000
3800000000
3800000000
3800000000
7800000000
7800000000
7800000000
7800000000
3E556AFF80
1FFFFFFF80
06FFFFF400
00000F4000
00001D0000
00002D0000
00001F9000
000006FF40
ENDCHAR
STARTCHAR eogonek
ENCODING 281
SWIDTH 515 0
DWIDTH 19 0
BBX 18 24 0 -5
BITMAP
0006900000
007FFD0000
02F91F4000
078007C000
0F0002C000
2D0002D000
3C0002C000
38000B8000
78007F4000
799BFD0000
79FF900000
3C54000000
3C00000000
2E00000000
0F40000000
07E0000000
01FE955590
002FFFFF40
0006BFE400
00002E0000
00003C0000
00003C0000
00002F9500
000006FE00
ENDCHAR
STARTCHAR Ecaron
ENCODING 282
SWIDTH 524 0
DWIDTH 19 0
BBX 17 27 0 0
BITMAP
002900A400
001B87F000
0001FF8000
0000BD0000
0540100000
2FFFFFFE00
2FFFEAAB80
2D00000000
2D00000000
2D00000000
2D00000000
2D00000000
2D00001500
2D016BFE00
7FFFFFE400
3FA9540000
3C00000000
3800000000
3800000000
3800000000
7800000000
7800000000
7800000000
7800000000
3E556AFF80
1FFFFFFF80
06FFFFA400
ENDCHAR
STARTCHAR ecaron
ENCODING 283
SWIDTH 515 0
DWIDTH 19 0
BBX 18 25 0 0
BITMAP
006800A000
001F87E000
0002FF8000
0000BD0000
0000100000
0000000000
0006900000
007FFD0000
02F91F4000
078007C000
0F0002C000
2D0002D000
3C0002C000
38000B8000
78007F4000
799BFD0000
79FF900000
3C54000000
3C00000000
2E00000000
0F40000000
07E0000000
01FE955590
002FFFFF40
0006BFA400
ENDCHAR
STARTCHAR Gcircumflex
ENCODING 284
SWIDTH 571 0
DWIDTH 21 0
BBX 19 32 1 -3
BITMAP
0000004000
000002E000
000002F400
000007FD00
00000FFF00
00007E2F80
0001F80BC0
0001E002C0
0000000000
0000000000
000001AE40
00002FFFD0
0002FE55A0
001F900000
00BD000000
02E0000000
0B80000000
1E00000000
3D00901540
7800FFFFE0
B4006AAAF0
B0000000F0
B0000000F0
B0000000F0
74000002F0
3D00000BF0
1FD555BFF0
07FFFFA6F0
006A9001F0
00000000F4
00000000BC
0000000014
ENDCHAR
STARTCHAR gcircumflex
ENCODING 285
SWIDTH 366 0
DWIDTH 13 0
BBX 19 45 -5 -18
BITMAP
0000010000
000003C000
000007E000
00000FF800
00002FFD00
0000BC7F00
0002F41F40
0003900740
0000000000
0000000000
0000000000
0000000000
000001A400
00001FFD00
00007E5F00
0001F00740
0003C00780
00078003C0
000B0003D0
000E0003D0
001E0007D0
001E0007E0
000F400FE0
000BD07FE0
0003FFFFE0
0000BF93E0
00000402E0
00000002F0
00000001F0
00000001F0
00000000F0
00000000F0
00000000F0
00000000B0
00000000B4
70000000F0
B0000000F0
B4000000F0
78000001E0
2F400002D0
0BE40003D0
02FF900B80
006FFFBF40
0002FFFD00
0000059000
ENDCHAR
STARTCHAR Gbreve
ENCODING 286
SWIDTH 571 0
DWIDTH 21 0
BBX 19 26 1 -3
BITMAP
0008038000
000A074000
0007FE0000
0000540000
000001AE40
00002FFFD0
0002FE55A0
001F900000
00BD000000
02E0000000
0B80000000
1E00000000
3D00901540
7800FFFFE0
B4006AAAF0
B0000000F0
B0000000F0
B0000000F0
74000002F0
3D00000BF0
1FD555BFF0
07FFFFA6F0
006A9001F0
00000000F4
00000000BC
0000000014
ENDCHAR
STARTCHAR gbreve
ENCODING 287
SWIDTH 366 0
DWIDTH 13 0
BBX 19 38 -5 -18
BITMAP
0000502800
0000A07800
00003FE000
0000054000
0000000000
000001A400
00001FFD00
00007E5F00
0001F00740
0003C00780
00078003C0
000B0003D0
000E0003D0
001E0007D0
001E0007E0
000F400FE0
000BD07FE0
0003FFFFE0
0000BF93E0
00000402E0
00000002F0
00000001F0
00000001F0
00000000F0
00000000F0
00000000F0
00000000B0
00000000B4
70000000F0
B0000000F0
B4000000F0
78000001E0
2F400002D0
0BE40003D0
02FF900B80
006FFFBF40
0002FFFD00
0000059000
ENDCHAR
STARTCHAR Gdotaccent
ENCODING 288
SWIDTH 571 0
DWIDTH 21 0
BBX 19 26 1 -3
BITMAP
0000064000
00000B8000
0000078000
0000010000
000001AE40
00002FFFD0
0002FE55A0
001F900000
00BD000000
02E0000000
0B80000000
1E00000000
3D00901540
7800FFFFE0
B4006AAAF0
B0000000F0
B0000000F0
B0000000F0
74000002F0
3D00000BF0
1FD555BFF0
07FFFFA6F0
006A9001F0
00000000F4
00000000BC
0000000014
ENDCHAR
STARTCHAR gdotaccent
ENCODING 289
SWIDTH 366 0
DWIDTH 13 0
BBX 19 38 -5 -18
BITMAP
0000060000
00000B4000
00000B8000
0000010000
0000000000
000001A400
00001FFD00
00007E5F00
0001F00740
0003C00780
00078003C0
000B0003D0
000E0003D0
001E0007D0
001E0007E0
000F400FE0
000BD07FE0
0003FFFFE0
0000BF93E0
00000402E0
00000002F0
00000001F0
00000001F0
00000000F0
00000000F0
00000000F0
00000000B0
00000000B4
70000000F0
B0000000F0
B4000000F0
78000001E0
2F400002D0
0BE40003D0
02FF900B80
006FFFBF40
0002FFFD00
0000059000
ENDCHAR
STARTCHAR Gcommaaccent
ENCODING 290
SWIDTH 571 0
DWIDTH 21 0
BBX 19 31 1 -12
BITMAP
000001AE40
00002FFFD0
0002FE55A0
001F900000
00BD000000
02E0000000
0B80000000
1E00000000
3D00901540
7800FFFFE0
B4006AAAF0
B0000000F0
B0000000F0
B0000000F0
74000002F0
3D00000BF0
1FD555BFF0
07FFFFA6F0
006A9001F0
00000000F4
00000000BC
0000000014
0000500000
0000F40000
0000F40000
0000B80000
0000780000
0000B40000
0001F40000
0001E00000
0000400000
ENDCHAR
STARTCHAR gcommaaccent
ENCODING 291
SWIDTH 366 0
DWIDTH 13 0
BBX 19 49 -5 -18
BITMAP
0000060000
00000B4000
00000B4000
0000078000
0000078000
0000078000
0000038000
0000028000
0000004000
0000000000
0000000000
0000000000
0000000000
0000000000
0000000000
0000000000
000001A400
00001FFD00
00007E5F00
0001F00740
0003C00780
00078003C0
000B0003D0
000E0003D0
001E0007D0
001E0007E0
000F400FE0
000BD07FE0
0003FFFFE0
0000BF93E0
00000402E0
00000002F0
00000001F0
00000001F0
00000000F0
00000000F0
00000000F0
00000000B0
00000000B4
70000000F0
B0000000F0
B4000000F0
78000001E0
2F400002D0
0BE40003D0
02FF900B80
006FFFBF40
0002FFFD00
0000059000
ENDCHAR
STARTCHAR Hcircumflex
ENCODING 292
SWIDTH 524 0
DWIDTH 19 0
BBX 18 35 0 0
BITMAP
0000100000
0000780000
0000BD0000
0001FF4000
0003FFC000
000F8BE000
007E02F000
007800B000
0000000000
0000000000
0000000040
0400000380
2800000380
2C00000780
2C00000780
2C00000780
2D00000780
1D00000780
1D00000780
1E00000780
1E00001F80
0E0001FF80
0F001FFB80
0F01FE4780
0FAFE40380
1FFE000380
7FE00003C0
1F800003C0
07800003C0
07800002D0
03800002D0
03800002D0
03800002E0
02800001E0
01400000E0
ENDCHAR
STARTCHAR hcircumflex
ENCODING 293
SWIDTH 427 0
DWIDTH 15 0
BBX 15 29 -1 0
BITMAP
00001000
0000B400
0000FD00
1001FF00
7407FFC0
781F8BE0
3C7E02F0
3D7800B0
2E000000
1F000000
0F000000
0F000000
0B414000
0B6FF800
07FFFF00
07F96F80
07C002D0
038000F0
038000B4
03C00074
03C00038
02C00038
02D0003C
02D0007C
02E0007C
02E0007C
01E0007C
01E00078
00D00074
ENDCHAR
STARTCHAR hbar
ENCODING 295
SWIDTH 427 0
DWIDTH 15 0
BBX 17 26 -3 0
BITMAP
0100000000
0740000000
0780000000
03C0000000
03D0000000
02E0000000
2FFF800000
BFFFD00000
A5F0400000
00B4140000
00B6FF8000
007FFFF000
007F96F800
007C002D00
0038000F00
0038000B40
003C000740
003C000380
002C000380
002D0003C0
002D0007C0
002E0007C0
002E0007C0
001E0007C0
001E000780
000D000740
ENDCHAR
STARTCHAR Itilde
ENCODING 296
SWIDTH 167 0
DWIDTH 6 0
BBX 13 25 -3 0
BITMAP
05000100
3FE00B40
B47EBD00
E00BF400
A0015000
11800000
01D00000
01E00000
00F00000
00B40000
00740000
00780000
003C0000
002C0000
002D0000
002D0000
001E0000
001E0000
001F0000
000F0000
000F0000
000F4000
000B4000
000B4000
00034000
ENDCHAR
STARTCHAR itilde
ENCODING 297
SWIDTH 174 0
DWIDTH 6 0
BBX 13 24 -2 0
BITMAP
06400140
3FE40B80
B47EBD00
A00BF400
A0004000
10000000
00000000
00000000
00A00000
00B00000
00B00000
00B00000
00B00000
00B40000
00B40000
00B80000
00BC0000
007C0000
007D0000
007D0000
003E0000
003E0000
002E0000
001D0000
ENDCHAR
STARTCHAR imacron
ENCODING 299
SWIDTH 174 0
DWIDTH 6 0
BBX 10 22 -2 0
BITMAP
16AA40
7FFFE0
BE5690
000000
000000
000000
00A000
00B000
00B000
00B000
00B000
00B400
00B400
00B800
00BC00
007C00
007D00
007D00
003E00
003E00
002E00
001D00
ENDCHAR
STARTCHAR Ibreve
ENCODING 300
SWIDTH 167 0
DWIDTH 6 0
BBX 7 28 0 0
BITMAP
8028
A074
7FE0
0540
0000
0000
0000
0000
6000
7400
7800
3C00
2D00
1D00
1E00
0F00
0B00
0B40
0B40
0780
0780
07C0
03C0
03C0
03D0
02D0
02D0
00D0
ENDCHAR
STARTCHAR ibreve
ENCODING 301
SWIDTH 174 0
DWIDTH 6 0
BBX 7 22 -1 0
BITMAP
5018
602C
3EF4
0A90
0000
0000
0280
02C0
02C0
02C0
02C0
02D0
02D0
02E0
02F0
01F0
01F4
01F4
00F8
00F8
00B8
0074
ENDCHAR
STARTCHAR Iogonek
ENCODING 302
SWIDTH 167 0
DWIDTH 6 0
BBX 7 25 0 -5
BITMAP
6000
7400
7800
3C00
2D00
1D00
1E00
0F00
0B00
0B40
0B40
0780
0780
07C0
03C0
03C0
03D0
02D0
02D0
2FD0
7D00
B000
F000
B940
2FFC
ENDCHAR
STARTCHAR iogonek
ENCODING 303
SWIDTH 174 0
DWIDTH 6 0
BBX 8 28 -1 -6
BITMAP
1800
2E00
0A00
0000
0000
0000
0280
02C0
02C0
02C0
02C0
02D0
02D0
02E0
02F0
01F0
01F4
01F4
00F8
00F8
01F8
0BF4
3E00
7800
7400
7D40
1BFD
0014
ENDCHAR
STARTCHAR Idotaccent
ENCODING 304
SWIDTH 167 0
DWIDTH 6 0
BBX 7 27 -1 0
BITMAP
2400
7C00
3C00
1400
0000
0000
0000
1800
1D00
1E00
0F00
0B40
0740
0780
03C0
02C0
02D0
02D0
01E0
01E0
01F0
00F0
00F0
00F4
00B4
00B4
0034
ENDCHAR
STARTCHAR dotlessi
ENCODING 305
SWIDTH 174 0
DWIDTH 6 0
BBX 4 16 2 0
BITMAP
A0
B0
B0
B0
B0
B4
B4
B8
BC
7C
7D
7D
3E
3E
2E
1D
ENDCHAR
STARTCHAR Jcircumflex
ENCODING 308
SWIDTH 439 0
DWIDTH 16 0
BBX 16 35 1 0
BITMAP
00000500
00000F40
00001FC0
00002FE0
00007FF8
0001F5FD
000BD07E
000B401E
00000000
00000000
00000A00
00000B00
00000740
00000780
00000780
000003C0
000003D0
000002D0
000002D0
000001E0
000001E0
000001F0
500000F0
E00000F0
E00000F0
F00000B4
780000B4
2D0000B0
0B0000F0
038000F0
01E000F0
007D01E0
001F92D0
0002FF80
00006E00
ENDCHAR
STARTCHAR jcircumflex
ENCODING 309
SWIDTH 200 0
DWIDTH 7 0
BBX 13 43 -4 -16
BITMAP
00010000
0003C000
0007E000
000FF800
002FFD00
00BC7F00
02F41F40
03900740
00000000
00000000
00000000
00000000
00000000
00034000
00038000
0003C000
0003D000
0002E000
0002F000
0001F000
0001F400
0000F800
0000B800
0000BC00
00007C00
00007D00
00003D00
00003D00
00002E00
00002E00
00001E00
D0001F00
F0000F00
B4000F00
7C000F00
3D000F00
2F000F00
0F800F00
07D00F00
02F41E00
00BFBE00
001FFD00
0002F800
ENDCHAR
STARTCHAR Kcommaaccent
ENCODING 310
SWIDTH 468 0
DWIDTH 17 0
BBX 16 33 0 -12
BITMAP
70000B40
74007E00
7800F800
3803E000
380B8000
382F0000
2C7C0000
2DF40000
1FD00000
1F400000
1F400000
1FD00000
1FF00000
1EBD0000
1E2F4000
1E0BE000
1E01FD00
0F002F80
0F0007F4
0B0000BE
0700001F
00000000
00000000
00000000
00004000
0003D000
0003E000
0001E000
0001E000
0002E000
0003D000
0003C000
00010000
ENDCHAR
STARTCHAR kcommaaccent
ENCODING 311
SWIDTH 403 0
DWIDTH 15 0
BBX 15 34 0 -12
BITMAP
C0000000
D0000000
A0000000
B0000000
74000000
78000000
38002D00
3C00B800
2D01E000
2D038000
1E0A0000
1E7C0000
0FF40000
0FE00000
0FC00000
0FC00000
0FE00000
0FF80000
0FAF9000
0F07FE90
1F00BFF4
0E001A90
00000000
00000000
00000000
00050000
000F0000
001F4000
000B4000
000B4000
000B4000
001F0000
001E0000
00040000
ENDCHAR
STARTCHAR Lacute
ENCODING 313
SWIDTH 346 0
DWIDTH 12 0
BBX 12 27 0 0
BITMAP
000014
0000B8
0003E0
000F80
002E00
002400
000000
000000
0A0000
0E0000
1E0000
2E0000
2E0000
2D0000
3D0000
3C0000
3C0000
3C0000
780000
780000
780000
780000
780000
3D0000
2FA550
0BFFFE
01BFFE
ENDCHAR
STARTCHAR lacute
ENCODING 314
SWIDTH 120 0
DWIDTH 4 0
BBX 6 28 -1 0
BITMAP
0060
02E0
0B80
3E00
B800
6000
0000
0D00
0F00
0F00
0F00
0F00
0F40
0F40
0F40
0F40
0F40
0F40
0F40
0F40
0F40
0F40
0F40
0F40
0F40
0B40
0B00
0B00
ENDCHAR
STARTCHAR Lcommaaccent
ENCODING 315
SWIDTH 346 0
DWIDTH 12 0
BBX 12 31 0 -12
BITMAP
0A0000
0E0000
1E0000
2E0000
2E0000
2D0000
3D0000
3C0000
3C0000
3C0000
780000
780000
780000
780000
780000
3D0000
2FA550
0BFFFE
01BFFE
000000
000000
000000
001400
003C00
007D00
002E00
002D00
002D00
007C00
007800
001000
ENDCHAR
STARTCHAR lcommaaccent
ENCODING 316
SWIDTH 120 0
DWIDTH 4 0
BBX 4 33 0 -12
BITMAP
34
3C
3C
3C
3C
3D
3D
3D
3D
3D
3D
3D
3D
3D
3D
3D
3D
3D
2D
2C
2C
00
00
00
14
3C
7D
2D
2D
2D
7C
78
10
ENDCHAR
STARTCHAR Lcaron
ENCODING 317
SWIDTH 346 0
DWIDTH 12 0
BBX 12 25 0 0
BITMAP
000900
000B00
000B00
000B40
000B40
000B80
0A0780
0E0380
1E0140
2E0000
2E0000
2D0000
3D0000
3C0000
3C0000
3C0000
780000
780000
780000
780000
780000
3D0000
2FA550
0BFFFE
01BFFE
ENDCHAR
STARTCHAR lcaron
ENCODING 318
SWIDTH 222 0
DWIDTH 8 0
BBX 7 26 1 0
BITMAP
00D0
00E0
00F0
00F4
00F4
D0B4
F0B4
F074
F010
F000
F400
F400
F400
F400
F400
F400
F400
F400
F400
F400
F400
F400
F400
B400
B000
B000
ENDCHAR
STARTCHAR Ldot
ENCODING 319
SWIDTH 346 0
DWIDTH 12 0
BBX 12 19 0 0
BITMAP
0A0000
0E0000
1E0000
2E0000
2E0000
2D0000
3D0000
3C0000
3C1400
3C7F00
78FF40
78BF00
782800
780000
780000
3D0000
2FA550
0BFFFE
01BFFE
ENDCHAR
STARTCHAR ldot
ENCODING 320
SWIDTH 333 0
DWIDTH 12 0
BBX 10 21 1 0
BITMAP
D00000
F00000
F00000
F00000
F00000
F40000
F40000
F40000
F40000
F40000
F40500
F41FC0
F42FD0
F42FD0
F40600
F40000
F40000
F40000
B40000
B00000
B00000
ENDCHAR
STARTCHAR Lslash
ENCODING 321
SWIDTH 346 0
DWIDTH 12 0
BBX 14 20 0 0
BITMAP
00800000
01D00000
02D00000
02D00000
03D00000
03C00000
07C00000
07C00000
07800000
07940000
0BFC0000
0BF80000
7FD00000
7F400000
6B400000
0B800000
07D00000
02FFAA40
00BFFFD0
0016AA80
ENDCHAR
STARTCHAR lslash
ENCODING 322
SWIDTH 120 0
DWIDTH 4 0
BBX 9 21 -3 0
BITMAP
00A000
00B400
00B400
00B400
00B400
00B400
00B800
00BA80
00BFC0
00BF80
02F800
1FF800
7DB800
20B800
00B800
00B800
00B800
007800
007400
007400
001000
ENDCHAR
STARTCHAR Nacute
ENCODING 323
SWIDTH 609 0
DWIDTH 22 0
BBX 20 25 1 0
BITMAP
0000060000
00001E0000
0000BC0000
0002E00000
0007800000
1006000000
B400000000
7400000640
78000007C0
7C000007E0
7D000003F0
7E000001F4
7F000000F8
7F4000007C
7FC000002D
BFD000001E
B5E000000F
B0B400000F
B03C00000F
F01F00001E
F40B80002D
F402F400BC
F400FFABF4
F4002FFFD0
B00001A900
ENDCHAR
STARTCHAR nacute
ENCODING 324
SWIDTH 459 0
DWIDTH 17 0
BBX 15 25 1 0
BITMAP
00018000
000B8000
002E0000
00F80000
02E00000
01800000
00000000
00000000
00000000
001BE000
41FFFD00
EBD47F00
FE000F80
FC0007C0
F80002E0
F40001F0
F40000F4
B80000B4
B80000B8
BC000078
7C00007C
3D00007C
2E000078
1E000078
06000074
ENDCHAR
STARTCHAR Ncommaaccent
ENCODING 325
SWIDTH 609 0
DWIDTH 22 0
BBX 20 32 1 -12
BITMAP
1000000000
B400000000
7400000640
78000007C0
7C000007E0
7D000003F0
7E000001F4
7F000000F8
7F4000007C
7FC000002D
BFD000001E
B5E000000F
B0B400000F
B03C00000F
F01F00001E
F40B80002D
F402F400BC
F400FFABF4
F4002FFFD0
B00001A900
0000000000
0000000000
0000000000
0000100000
00007C0000
00007D0000
00002D0000
00002D0000
00003C0000
0000BC0000
0000B40000
0000100000
ENDCHAR
STARTCHAR ncommaaccent
ENCODING 326
SWIDTH 459 0
DWIDTH 17 0
BBX 15 28 1 -12
BITMAP
001BE000
41FFFD00
EBD47F00
FE000F80
FC0007C0
F80002E0
F40001F0
F40000F4
B80000B4
B80000B8
BC000078
7C00007C
3D00007C
2E000078
1E000078
06000074
00000000
00000000
00000000
00050000
000F0000
001F4000
000B8000
000B8000
000B4000
001F4000
001E0000
00040000
ENDCHAR
STARTCHAR Ncaron
ENCODING 327
SWIDTH 609 0
DWIDTH 22 0
BBX 20 27 1 0
BITMAP
0019006800
000BD2F400
0000BFD000
00003E0000
0000140000
0000000000
0000000000
1000000000
B400000000
7400000640
78000007C0
7C000007E0
7D000003F0
7E000001F4
7F000000F8
7F4000007C
7FC000002D
BFD000001E
B5E000000F
B0B400000F
B03C00000F
F01F00001E
F40B80002D
F402F400BC
F400FFABF4
F4002FFFD0
B00001A900
ENDCHAR
STARTCHAR ncaron
ENCODING 328
SWIDTH 459 0
DWIDTH 17 0
BBX 15 22 1 0
BITMAP
06800A00
01F87E00
002FF800
000BD000
00010000
00000000
001BE000
41FFFD00
EBD47F00
FE000F80
FC0007C0
F80002E0
F40001F0
F40000F4
B80000B4
B80000B8
BC000078
7C00007C
3D00007C
2E000078
1E000078
06000074
ENDCHAR
STARTCHAR napostrophe
ENCODING 329
SWIDTH 459 0
DWIDTH 17 0
BBX 15 25 1 0
BITMAP
01000000
0B400000
0F800000
07800000
07800000
07800000
0F400000
0F000000
04000000
001BE000
41FFFD00
EBD47F00
FE000F80
FC0007C0
F80002E0
F40001F0
F40000F4
B80000B4
B80000B8
BC000078
7C00007C
3D00007C
2E000078
1E000078
06000074
ENDCHAR
STARTCHAR Omacron
ENCODING 332
SWIDTH 609 0
DWIDTH 22 0
BBX 21 25 0 0
BITMAP
000055540000
0003FFFD0000
000BFAAD0000
000500000000
000000000000
000000000000
000000000000
000540000000
00BFF9000000
07FAFFE00000
0F4006FD0000
2D00006F8000
3C000007E000
78000000F800
740000003D00
740000001F00
740000000B40
380000000780
2D00000003C0
1F00000007C0
0F8000000B80
07F400006F00
01FE4016FC00
002FFFFFD000
0006BFA50000
ENDCHAR
STARTCHAR omacron
ENCODING 333
SWIDTH 487 0
DWIDTH 18 0
BBX 17 20 0 0
BITMAP
0005550000
007FFFD000
00BFAAD000
0050000000
0000000000
0006FE4000
00BFFFE000
02F90BF800
0B8000BD00
2E00002E00
3C00000B40
7800000B40
7400000B80
7800000B40
3800001F40
3D00007F00
1F4001FD00
0BE41BF400
02FFFFD000
006FF90000
ENDCHAR
STARTCHAR Obreve
ENCODING 334
SWIDTH 609 0
DWIDTH 22 0
BBX 21 23 0 0
BITMAP
000140740000
0000D0B00000
0000BFD00000
000015000000
000000000000
000540000000
00BFF9000000
07FAFFE00000
0F4006FD0000
2D00006F8000
3C000007E000
78000000F800
740000003D00
740000001F00
740000000B40
380000000780
2D00000003C0
1F00000007C0
0F8000000B80
07F400006F00
01FE4016FC00
002FFFFFD000
0006BFA50000
ENDCHAR
STARTCHAR obreve
ENCODING 335
SWIDTH 487 0
DWIDTH 18 0
BBX 17 21 0 0
BITMAP
0050280000
00A4780000
003FF00000
0005400000
0000000000
0000000000
0006FE4000
00BFFFE000
02F90BF800
0B8000BD00
2E00002E00
3C00000B40
7800000B40
7400000B80
7800000B40
3800001F40
3D00007F00
1F4001FD00
0BE41BF400
02FFFFD000
006FF90000
ENDCHAR
STARTCHAR Ohungarumlaut
ENCODING 336
SWIDTH 609 0
DWIDTH 22 0
BBX 21 25 0 0
BITMAP
0000B4240000
0002F1F40000
000BC7E00000
000A0B400000
000005000000
000000000000
000000000000
000540000000
00BFF9000000
07FAFFE00000
0F4006FD0000
2D00006F8000
3C000007E000
78000000F800
740000003D00
740000001F00
740000000B40
380000000780
2D00000003C0
1F00000007C0
0F8000000B80
07F400006F00
01FE4016FC00
002FFFFFD000
0006BFA50000
ENDCHAR
STARTCHAR ohungarumlaut
ENCODING 337
SWIDTH 487 0
DWIDTH 18 0
BBX 17 21 0 0
BITMAP
0001000000
000B420000
003E1F4000
00B87D0000
00E0B40000
0000900000
0006FE4000
00BFFFE000
02F90BF800
0B8000BD00
2E00002E00
3C00000B40
7800000B40
7400000B80
7800000B40
3800001F40
3D00007F00
1F4001FD00
0BE41BF400
02FFFFD000
006FF90000
ENDCHAR
STARTCHAR OE
ENCODING 338
SWIDTH 848 0
DWIDTH 31 0
BBX 30 18 0 0
BITMAP
0006400000000000
00BFF90FFFFFFE40
07FABF5FAAAA9690
0F400BDF00000000
2D0002FF00000000
3C0000FF00000000
780000BF00000000
7400007F0016AF40
7400003FFFFFA400
7800002F55400000
3C00002E00000000
2D00002D00000000
1F00002D00000000
0BC0003D00000000
03F4007D00000000
01FF41FD00005540
002FFFFFEBFFFFE0
0001AE81BFFFE940
ENDCHAR
STARTCHAR oe
ENCODING 339
SWIDTH 875 0
DWIDTH 32 0
BBX 31 20 0 -2
BITMAP
0000000000540000
0000000007FF8000
000000002F9BE000
0006BE40B800F400
007FFFE2E0007800
02F95BFBC0007800
0B8000BF80007800
1E00002F4000B400
3C00000F4007E000
7800000F557F8000
7400000FBFFD0000
7400000F5A500000
3800001F40000000
3D00007F80000000
1F4001FFD0000000
0BE41BF4F8000000
02FFFFD07F940054
006FF9000BFFFFF4
0000000001BFFE40
0000000000014000
ENDCHAR
STARTCHAR Racute
ENCODING 340
SWIDTH 579 0
DWIDTH 21 0
BBX 21 31 -1 -2
BITMAP
000000080000
0000007C0000
000002F40000
00000BC00000
00001E000000
000018000000
001555400000
07FFFFF90000
2FEAAAFFD000
7D000007F400
74000000BD00
201400002E00
002C00000F00
002C00002E00
002D0001FD00
002D016FF400
001FBFFF8000
001FFFA40000
000FD4000000
000FC0000000
000BE0000000
000BB8000000
00076E000000
00074B800000
000382E00000
0002C0B80000
0001C02F4000
0001C007E000
00008001FD00
000000002F80
000000000140
ENDCHAR
STARTCHAR racute
ENCODING 341
SWIDTH 346 0
DWIDTH 12 0
BBX 12 24 0 0
BITMAP
000050
0002D0
001F80
007D00
00F400
009000
000000
000100
00BFF8
6BEBFE
7E401A
7C0000
7C0000
3C0000
3C0000
2C0000
2D0000
1E0000
0F0000
0F4000
0B8000
07C000
02C000
018000
ENDCHAR
STARTCHAR Rcommaaccent
ENCODING 342
SWIDTH 579 0
DWIDTH 21 0
BBX 21 35 -1 -12
BITMAP
001555400000
07FFFFF90000
2FEAAAFFD000
7D000007F400
74000000BD00
201400002E00
002C00000F00
002C00002E00
002D0001FD00
002D016FF400
001FBFFF8000
001FFFA40000
000FD4000000
000FC0000000
000BE0000000
000BB8000000
00076E000000
00074B800000
000382E00000
0002C0B80000
0001C02F4000
0001C007E000
00008001FD00
000000002F80
000000000140
000000000000
000001000000
00000B400000
00000F800000
000007C00000
000003C00000
000007800000
00000F800000
00000F000000
000004000000
ENDCHAR
STARTCHAR rcommaaccent
ENCODING 343
SWIDTH 346 0
DWIDTH 12 0
BBX 12 29 0 -12
BITMAP
000100
00BFF8
6BEBFE
7E401A
7C0000
7C0000
3C0000
3C0000
2C0000
2D0000
1E0000
0F0000
0F4000
0B8000
07C000
02C000
018000
000000
000000
000000
001400
003C00
007D00
002E00
002D00
002D00
007C00
007800
001000
ENDCHAR
STARTCHAR Rcaron
ENCODING 344
SWIDTH 579 0
DWIDTH 21 0
BBX 21 32 -1 -2
BITMAP
0006800A0000
0001F87E0000
00002FF80000
00000BD00000
000001000000
000000000000
000000000000
001555400000
07FFFFF90000
2FEAAAFFD000
7D000007F400
74000000BD00
201400002E00
002C00000F00
002C00002E00
002D0001FD00
002D016FF400
001FBFFF8000
001FFFA40000
000FD4000000
000FC0000000
000BE0000000
000BB8000000
00076E000000
00074B800000
000382E00000
0002C0B80000
0001C02F4000
0001C007E000
00008001FD00
000000002F80
000000000140
ENDCHAR
STARTCHAR rcaron
ENCODING 345
SWIDTH 346 0
DWIDTH 12 0
BBX 12 22 0 0
BITMAP
1A0028
07E1F8
00BFE0
002F40
000400
000100
00BFF8
6BEBFE
7E401A
7C0000
7C0000
3C0000
3C0000
2C0000
2D0000
1E0000
0F0000
0F4000
0B8000
07C000
02C000
018000
ENDCHAR
STARTCHAR Sacute
ENCODING 346
SWIDTH 627 0
DWIDTH 23 0
BBX 22 30 0 -1
BITMAP
000000600000
000001E00000
00000BC00000
00003E000000
000078000000
000060000000
000000000000
000016940000
0006FFFF9000
001F9407F800
003C00007D00
007400000500
007800000000
003C00000000
001F40000000
0007E0000000
0001BE000000
00001FE40000
000001FE4000
0000002FE000
04000002FD00
380000002F40
7800000007C0
3D00000002E0
1E00000002E0
0B80000003D0
01F900001BC0
002FFEABFF40
0001BFFFE400
000001540000
ENDCHAR
STARTCHAR sacute
ENCODING 347
SWIDTH 514 0
DWIDTH 19 0
BBX 17 25 1 0
BITMAP
0000050000
00002E0000
0001F80000
0007E00000
000B800000
0009000000
0000000000
0000000000
0055000000
0BFFE00000
2FAABC0000
B8001D0000
B4000E0000
B4001D0000
3D00000000
1FA5400000
02FFFE9000
0005ABF800
0000007F00
0000000F40
9000000F40
F800000F40
7F90007F00
0BFFFFFD00
01AFFF9000
ENDCHAR
STARTCHAR Scircumflex
ENCODING 348
SWIDTH 627 0
DWIDTH 23 0
BBX 22 33 0 -1
BITMAP
000001000000
000007800000
00000BD00000
00001FF40000
00003FFC0000
0000F8BE0000
0007E02F0000
0007800B0000
000000000000
000000000000
000016940000
0006FFFF9000
001F9407F800
003C00007D00
007400000500
007800000000
003C00000000
001F40000000
0007E0000000
0001BE000000
00001FE40000
000001FE4000
0000002FE000
04000002FD00
380000002F40
7800000007C0
3D00000002E0
1E00000002E0
0B80000003D0
01F900001BC0
002FFEABFF40
0001BFFFE400
000001540000
ENDCHAR
STARTCHAR scircumflex
ENCODING 349
SWIDTH 514 0
DWIDTH 19 0
BBX 17 27 1 0
BITMAP
0000400000
0001E00000
0002F40000
0007FD0000
000FFF0000
007E2F8000
01F80BC000
01E002C000
0000000000
0000000000
0055000000
0BFFE00000
2FAABC0000
B8001D0000
B4000E0000
B4001D0000
3D00000000
1FA5400000
02FFFE9000
0005ABF800
0000007F00
0000000F40
9000000F40
F800000F40
7F90007F00
0BFFFFFD00
01AFFF9000
ENDCHAR
STARTCHAR Scedilla
ENCODING 350
SWIDTH 627 0
DWIDTH 23 0
BBX 22 33 0 -11
BITMAP
000016940000
0006FFFF9000
001F9407F800
003C00007D00
007400000500
007800000000
003C00000000
001F40000000
0007E0000000
0001BE000000
00001FE40000
000001FE4000
0000002FE000
04000002FD00
380000002F40
7800000007C0
3D00000002E0
1E00000002E0
0B80000003D0
01F900001BC0
002FFEABFF40
0002EFFFE400
000380540000
000280000000
0002C0000000
0000F9400000
00002FF40000
0000007D0000
0000000F0000
0002400F0000
0002E00F0000
0000BEAD0000
00002FE40000
ENDCHAR
STARTCHAR scedilla
ENCODING 351
SWIDTH 514 0
DWIDTH 19 0
BBX 17 28 1 -11
BITMAP
0055000000
0BFFE00000
2FAABC0000
B8001D0000
B4000E0000
B4001D0000
3D00000000
1FA5400000
02FFFE9000
0005ABF800
0000007F00
0000000F40
9000000F40
F800000F40
7F90007F00
0BFFFFFD00
01FFFF9000
00A0000000
00A0000000
00B0000000
003E500000
000BFD0000
00001F4000
000003C000
009003C000
00B803C000
002FAB4000
000BF80000
ENDCHAR
STARTCHAR Scaron
ENCODING 352
SWIDTH 627 0
DWIDTH 23 0
BBX 22 28 0 -1
BITMAP
0006800A0000
0001F87E0000
00002FF80000
00000BD00000
000001000000
000016940000
0006FFFF9000
001F9407F800
003C00007D00
007400000500
007800000000
003C00000000
001F40000000
0007E0000000
0001BE000000
00001FE40000
000001FE4000
0000002FE000
04000002FD00
380000002F40
7800000007C0
3D00000002E0
1E00000002E0
0B80000003D0
01F900001BC0
002FFEABFF40
0001BFFFE400
000001540000
ENDCHAR
STARTCHAR scaron
ENCODING 353
SWIDTH 514 0
DWIDTH 19 0
BBX 17 22 1 0
BITMAP
01A0028000
007E1F8000
000BFE0000
0002F40000
0000400000
0055000000
0BFFE00000
2FAABC0000
B8001D0000
B4000E0000
B4001D0000
3D00000000
1FA5400000
02FFFE9000
0005ABF800
0000007F00
0000000F40
9000000F40
F800000F40
7F90007F00
0BFFFFFD00
01AFFF9000
ENDCHAR
STARTCHAR Tcommaaccent
ENCODING 354
SWIDTH 581 0
DWIDTH 21 0
BBX 24 34 0 -11
BITMAP
555555000000
BFFFFFFFEA40
016AFFFFFFF9
000003C016FF
000002C00005
000002C00000
000002C00000
000002D00000
000002D00000
000001D00000
000001E00000
000001E00000
000000F00000
000000F00000
000000F00000
000000F40000
000000B40000
000000B80000
000000780000
0000007C0000
0000003E0000
0000003F0000
0000001F0000
000000000000
000000000000
000000140000
0000003C0000
0000007D0000
0000002D0000
0000002D0000
0000002D0000
0000007C0000
000000780000
000000100000
ENDCHAR
STARTCHAR tcommaaccent
ENCODING 355
SWIDTH 328 0
DWIDTH 12 0
BBX 12 34 0 -12
BITMAP
007400
00B800
007800
007800
007800
007C00
007C00
00BC00
6FFFF9
7FFFFD
057D00
007C00
007C00
007C00
007C00
007C00
007C00
007D00
003D00
003D00
002D00
001D00
000900
000000
000000
001000
007800
00BC00
003C00
003C00
003C00
00B800
00B400
001000
ENDCHAR
STARTCHAR Tcaron
ENCODING 356
SWIDTH 581 0
DWIDTH 21 0
BBX 24 27 0 0
BITMAP
000A40290000
0006E1FC0000
00007FE00000
00001F400000
555559000000
BFFFFFFFEA40
016AFFFFFFF9
000003C016FF
000002C00005
000002C00000
000002C00000
000002D00000
000002D00000
000001D00000
000001E00000
000001E00000
000000F00000
000000F00000
000000F00000
000000F40000
000000B40000
000000B80000
000000780000
0000007C0000
0000003E0000
0000003F0000
0000001F0000
ENDCHAR
STARTCHAR tcaron
ENCODING 357
SWIDTH 431 0
DWIDTH 16 0
BBX 15 27 0 -1
BITMAP
00000070
00000074
00000078
00000078
00740078
00B8007C
0078003C
0078002C
00780004
007C0000
007C0000
00BC0000
6FFFF900
7FFFFD00
057D0000
007C0000
007C0000
007C0000
007C0000
007C0000
007C0000
007D0000
003D0000
003D0000
002D0000
001D0000
00090000
ENDCHAR
STARTCHAR Utilde
ENCODING 360
SWIDTH 571 0
DWIDTH 21 0
BBX 19 25 1 0
BITMAP
0015000500
00BF901E00
02D1F9B800
02C02FE000
0280014000
1440000000
7C00000D00
B400001E00
A000001E00
E000002F00
E000001F00
E000001F00
E000000F00
E000000F00
B000000B40
B000000780
74000007C0
78000007D0
3C00000BE0
2D00001FF0
1F00007FF4
0B8002F9F8
07F96F907C
01FFFE002C
002FE00000
ENDCHAR
STARTCHAR utilde
ENCODING 361
SWIDTH 501 0
DWIDTH 18 0
BBX 18 24 0 0
BITMAP
0015000500
00BF901E00
01E1B9B800
02C02FE000
01C0014000
0040000000
0000000000
1400000000
3800000000
7800002400
7400007C00
7400007C00
7400007D00
7800007D00
3C00007D00
3C00007D00
2D00007D00
1F0000FE00
0F4002FF00
07D00BDF40
02F42F0780
00BFFC03C0
001BE003D0
00000002D0
ENDCHAR
STARTCHAR Umacron
ENCODING 362
SWIDTH 571 0
DWIDTH 21 0
BBX 19 25 1 0
BITMAP
0001554000
002FFFE000
007FAAE000
0014000000
0000000000
1400000000
7C00000D00
B400001E00
A000001E00
E000002F00
E000001F00
E000001F00
E000000F00
E000000F00
B000000B40
B000000780
74000007C0
78000007D0
3C00000BE0
2D00001FF0
1F00007FF4
0B8002F9F8
07F96F907C
01FFFE002C
002FE00000
ENDCHAR
STARTCHAR umacron
ENCODING 363
SWIDTH 501 0
DWIDTH 18 0
BBX 18 22 0 0
BITMAP
0015550000
00BFFF8000
01FEAB8000
0040000000
0000000000
1400000000
3800000000
7800002400
7400007C00
7400007C00
7400007D00
7800007D00
3C00007D00
3C00007D00
2D00007D00
1F0000FE00
0F4002FF00
07D00BDF40
02F42F0780
00BFFC03C0
001BE003D0
00000002D0
ENDCHAR
STARTCHAR Ubreve
ENCODING 364
SWIDTH 571 0
DWIDTH 21 0
BBX 19 23 1 0
BITMAP
0008038000
000A074000
0007FE0000
1400540000
7C00000D00
B400001E00
A000001E00
E000002F00
E000001F00
E000001F00
E000000F00
E000000F00
B000000B40
B000000780
74000007C0
78000007D0
3C00000BE0
2D00001FF0
1F00007FF4
0B8002F9F8
07F96F907C
01FFFE002C
002FE00000
ENDCHAR
STARTCHAR ubreve
ENCODING 365
SWIDTH 501 0
DWIDTH 18 0
BBX 18 22 0 0
BITMAP
00501D0000
00342C0000
002FF40000
0005400000
0000000000
1400000000
3800000000
7800002400
7400007C00
7400007C00
7400007D00
7800007D00
3C00007D00
3C00007D00
2D00007D00
1F0000FE00
0F4002FF00
07D00BDF40
02F42F0780
00BFFC03C0
001BE003D0
00000002D0
ENDCHAR
STARTCHAR Uring
ENCODING 366
SWIDTH 571 0
DWIDTH 21 0
BBX 19 26 1 0
BITMAP
0000540000
0007BD0000
000D0B0000
0018030000
001C0B0000
000BAD0000
1401500000
7C00000D00
B400001E00
A000001E00
E000002F00
E000001F00
E000001F00
E000000F00
E000000F00
B000000B40
B000000780
74000007C0
78000007D0
3C00000BE0
2D00001FF0
1F00007FF4
0B8002F9F8
07F96F907C
01FFFE002C
002FE00000
ENDCHAR
STARTCHAR uring
ENCODING 367
SWIDTH 501 0
DWIDTH 18 0
BBX 18 21 0 0
BITMAP
0000500000
000BBC0000
001C0A0000
0024070000
14180A0000
380EBC0000
7801502400
7400007C00
7400007C00
7400007D00
7800007D00
3C00007D00
3C00007D00
2D00007D00
1F0000FE00
0F4002FF00
07D00BDF40
02F42F0780
00BFFC03C0
001BE003D0
00000002D0
ENDCHAR
STARTCHAR Uhungarumlaut
ENCODING 368
SWIDTH 571 0
DWIDTH 21 0
BBX 19 25 1 0
BITMAP
0007814000
002F4B8000
007D3E0000
0074780000
0000600000
1400000000
7C00000D00
B400001E00
A000001E00
E000002F00
E000001F00
E000001F00
E000000F00
E000000F00
B000000B40
B000000780
74000007C0
78000007D0
3C00000BE0
2D00001FF0
1F00007FF4
0B8002F9F8
07F96F907C
01FFFE002C
002FE00000
ENDCHAR
STARTCHAR uhungarumlaut
ENCODING 369
SWIDTH 501 0
DWIDTH 18 0
BBX 18 24 0 0
BITMAP
0001E05000
0007D2E000
000F4B8000
001D1E0000
0000080000
0000000000
0000000000
1400000000
3800000000
7800002400
7400007C00
7400007C00
7400007D00
7800007D00
3C00007D00
3C00007D00
2D00007D00
1F0000FE00
0F4002FF00
07D00BDF40
02F42F0780
00BFFC03C0
001BE003D0
00000002D0
ENDCHAR
STARTCHAR Uogonek
ENCODING 370
SWIDTH 571 0
DWIDTH 21 0
BBX 21 24 1 -6
BITMAP
1D0000050000
3D00000A0000
7400000F0000
7400000F4000
B000000F4000
B000000F4000
B000000B4000
B400000B4000
740000078000
740000038000
38000003C000
3C000002D000
2C000003E000
1E000007F400
0F00001FF800
0B80007FFC00
03E406F47D00
01FFBF80BD00
007FFD07E400
0006900F4000
0000001D0000
0000001E0000
0000000FE540
00000001AA40
ENDCHAR
STARTCHAR uogonek
ENCODING 371
SWIDTH 501 0
DWIDTH 18 0
BBX 19 22 0 -5
BITMAP
2800000000
7800000000
7800003800
7400007C00
7400007C00
7800007D00
7800007D00
3C00007D00
2D00007D00
2E0000BD00
0F0001FE00
0B8003FF00
03E00F8B40
01F97E0780
007FF803C0
0006901BD0
0000007E90
000000F400
000001D000
000001E000
000000BEA4
00000016A4
ENDCHAR
STARTCHAR Wcircumflex
ENCODING 372
SWIDTH 703 0
DWIDTH 25 0
BBX 25 32 0 0
BITMAP
00000040000000
000000F0000000
000001F8000000
000003FE000000
00000BFF400000
00002F1FC00000
0000BD07D00000
0000E401D00000
00000000000000
00000000000000
00000000000000
00000000000000
00000000000000
00000000000000
20000000004000
7400000000E000
B400000000F400
B400000000BC00
B4000000007D00
B8000000003E00
B8000000002E00
78000A00001F00
78000B00000F40
7C000B40000B40
3C000F80000780
2D000FC0000780
2E001FD0000B40
1F007FF4000F40
0B41F8BD002E00
07EBE02F96FC00
01FF4007FFE000
00690001BE4000
ENDCHAR
STARTCHAR wcircumflex
ENCODING 373
SWIDTH 656 0
DWIDTH 24 0
BBX 23 27 0 0
BITMAP
000001400000
000003D00000
000007F00000
00000BF80000
00001FFE0000
00007D7F4000
0002F41F8000
0002D0078000
000000000000
000000000000
000000000000
000000000000
1C0000000000
2C0000000000
3C0000000600
780001400380
B40003C001D0
B40003C000F0
B40003D000B4
780003D000B4
780003D00078
3C0007E000B8
2E000BF000F8
0F407FF802F4
07D6FD3FAFE0
01FFF40FFFC0
006F90015500
ENDCHAR
STARTCHAR Ycircumflex
ENCODING 374
SWIDTH 403 0
DWIDTH 15 0
BBX 14 33 0 -1
BITMAP
00010000
00078000
000BD000
001FF400
003FFC00
00F8BE00
07E02F00
07800B00
00000000
70000000
740000A0
3C0000E0
2E0000E0
1F4001E0
0BD003D0
02F407C0
00BE4B80
001FFF40
0002FF00
00003E00
00003D00
00007C00
0000B400
0000F000
0001E000
0001D000
0002D000
0002C000
0003C000
0003C000
0003C000
0003C000
00014000
ENDCHAR
STARTCHAR ycircumflex
ENCODING 375
SWIDTH 487 0
DWIDTH 18 0
BBX 17 45 0 -18
BITMAP
0000400000
0000F00000
0001FC0000
0002FE0000
0007FF8000
002F5FD000
00BD07E000
00B401E000
0000000000
0000000000
0000000000
1000000800
7000000C00
7000000D00
7400000E00
7400000E00
7800000F00
3C00000F00
2D00000F40
2E00000F40
0F00000F80
0B40001F80
03C0007F80
01F402FF80
007FAF9380
001BFD0280
00005002C0
00000002C0
00000002C0
00000002C0
00000002C0
00000003C0
0000000380
0000000380
0000000780
0000000740
0000000B40
1C00000B00
1F00000F00
0FC0001E00
07F4003D00
01FE00B800
002FEBF000
0006FFD000
0000190000
ENDCHAR
STARTCHAR Ydieresis
ENCODING 376
SWIDTH 403 0
DWIDTH 15 0
BBX 14 29 0 -1
BITMAP
01E02900
03F47F00
03F47F00
00901400
00000000
70000000
740000A0
3C0000E0
2E0000E0
1F4001E0
0BD003D0
02F407C0
00BE4B80
001FFF40
0002FF00
00003E00
00003D00
00007C00
0000B400
0000F000
0001E000
0001D000
0002D000
0002C000
0003C000
0003C000
0003C000
0003C000
00014000
ENDCHAR
STARTCHAR Zacute
ENCODING 377
SWIDTH 571 0
DWIDTH 21 0
BBX 20 31 0 0
BITMAP
0000008000
000007C000
00002F4000
0000BD0000
0001F00000
0000800000
0000000000
0000000000
0055000000
1BFFF80000
7FA6BF4000
640007D000
000001F000
000000B400
0000007400
0000007400
000000B400
000000F000
000002F400
0005AFFFE4
00BFFFFFE4
00EABF9000
00002E0000
00003C0000
0000B40000
0001E00000
0007C00000
000B80006A
000F416FFF
000BFFFFE8
0007FFE900
ENDCHAR
STARTCHAR zacute
ENCODING 378
SWIDTH 459 0
DWIDTH 17 0
BBX 16 26 0 0
BITMAP
00002000
0001B400
0007D000
001F4000
003D0000
00240000
00000000
005A9000
1BFFF800
7F556E00
38000F00
00000F00
00000F00
00000E00
00002D00
00007D00
16AFFFE0
2FFFEA40
055F8000
002F0000
007D0000
00F40000
02F4001D
03F95BFD
02FFFFF4
006FE940
ENDCHAR
STARTCHAR Zdotaccent
ENCODING 379
SWIDTH 571 0
DWIDTH 21 0
BBX 20 28 0 0
BITMAP
0001800000
0002D00000
0002E00000
0000400000
0000000000
0055000000
1BFFF80000
7FA6BF4000
640007D000
000001F000
000000B400
0000007400
0000007400
000000B400
000000F000
000002F400
0005AFFFE4
00BFFFFFE4
00EABF9000
00002E0000
00003C0000
0000B40000
0001E00000
0007C00000
000B80006A
000F416FFF
000BFFFFE8
0007FFE900
ENDCHAR
STARTCHAR zdotaccent
ENCODING 380
SWIDTH 459 0
DWIDTH 17 0
BBX 16 24 0 0
BITMAP
00019000
0002E000
0001E000
00004000
00000000
005A9000
1BFFF800
7F556E00
38000F00
00000F00
00000F00
00000E00
00002D00
00007D00
16AFFFE0
2FFFEA40
055F8000
002F0000
007D0000
00F40000
02F4001D
03F95BFD
02FFFFF4
006FE940
ENDCHAR
STARTCHAR Zcaron
ENCODING 381
SWIDTH 571 0
DWIDTH 21 0
BBX 20 28 0 0
BITMAP
00A401A000
002F4BD000
0002FF4000
0000F80000
0000500000
0055000000
1BFFF80000
7FA6BF4000
640007D000
000001F000
000000B400
0000007400
0000007400
000000B400
000000F000
000002F400
0005AFFFE4
00BFFFFFE4
00EABF9000
00002E0000
00003C0000
0000B40000
0001E00000
0007C00000
000B80006A
000F416FFF
000BFFFFE8
0007FFE900
ENDCHAR
STARTCHAR zcaron
ENCODING 382
SWIDTH 459 0
DWIDTH 17 0
BBX 16 25 0 0
BITMAP
0A401900
02E5BD00
007FF400
000F8000
00050000
00000000
005A9000
1BFFF800
7F556E00
38000F00
00000F00
00000F00
00000E00
00002D00
00007D00
16AFFFE0
2FFFEA40
055F8000
002F0000
007D0000
00F40000
02F4001D
03F95BFD
02FFFFF4
006FE940
ENDCHAR
STARTCHAR florin
ENCODING 402
SWIDTH 376 0
DWIDTH 14 0
BBX 21 36 -4 -10
BITMAP
000000140000
000002FF8000
00001FEBF400
00003E00BD00
00007C002F00
0000B4000B40
0000F0000000
0001E0000000
0001E0000000
0002E0000000
0002E0000000
0002E0000000
0002E0000000
0002E0000000
0016FA550000
00FFFFFF8000
01A5F5690000
0000B4000000
0000B4000000
0000B4000000
0000F4000000
0000F4000000
0000F0000000
0000F0000000
0000F0000000
0000F0000000
0000F0000000
0001F0000000
1001F0000000
7801E0000000
3D01E0000000
1F41E0000000
07E2E0000000
00BFE0000000
001FD0000000
000140000000
ENDCHAR
STARTCHAR AEacute
ENCODING 508
SWIDTH 960 0
DWIDTH 35 0
BBX 33 31 1 0
BITMAP
000000000140000000
000000000B80000000
000000007E00000000
00015001F800000000
002FFE02E000000000
01F96F824000000000
03D002E00000000000
0B4000B40000000000
0E00003C1555000000
1D00001D3FFFFFFD00
1C00000F7FEAAAAB00
2C00000B7800000000
28000007B800000000
38000003F800000000
34000002F800000000
34000002F800000000
34000001F800005500
74000001FC05AFFC00
74000002FFFFFF9000
BFFFAAA7FE95400000
FEAAABFFF800000000
78000000F400000000
38000000F400000000
38000000B400000000
3C000000B400000000
3C000000B400000000
3D000000F400000000
2D000000F400000000
2E000001FE56ABFF80
1E000001FFFFFFFF40
0A000001D6FFFA9400
ENDCHAR
STARTCHAR aeacute
ENCODING 509
SWIDTH 881 0
DWIDTH 32 0
BBX 31 27 0 -1
BITMAP
0000000005000000
000000002D000000
00000001F8000000
00000007D0000000
0000000F40000000
0000000900000000
0000000000000000
0000000000000000
000BE00001AA4000
002FFE000BFFD000
00286F803E41F400
000007E0B8007800
000000F5E0003C00
0000007FC0002C00
0000003F80003C00
006FFA6F8001F800
07FFAFFF401BE000
1FD001FFAABF8000
3D00002FAFF80000
7800000BC0000000
74000003C0000000
38000002D0000000
2E000001F4000000
0FE95ABFFE400000
02FFFFFE5FFA56A8
001AFE9002FFFFE0
00000000001AA900
ENDCHAR
STARTCHAR Oslashacute
ENCODING 510
SWIDTH 609 0
DWIDTH 22 0
BBX 21 28 0 -3
BITMAP
000002C00000
00001B800000
00007E000000
0000F4000000
0001D0000000
000040000000
000000140000
000540280000
00BFF9380000
07FAFFF40000
0F4006FD0000
2D0000FF8000
3C0001E7E000
780002C0F800
740003803D00
740007401F00
74000B000B40
38001E000780
2D002D0003C0
1F003C0007C0
0F8078000B80
07F4B4006F00
01FEE016FC00
002FFFFFD000
0007FFA50000
000B40000000
000F00000000
000D00000000
ENDCHAR
STARTCHAR oslashacute
ENCODING 511
SWIDTH 487 0
DWIDTH 18 0
BBX 17 22 0 0
BITMAP
0000050000
00002E0000
0000B80000
0003E00000
000B800000
000A000000
0000000000
0006BE5D00
007FFFFD00
02F95BF800
0B8001FD00
1E0002FE00
3C000B8F00
78001F4B40
74003D0B80
7400B80B40
3802F01F40
3D07D07F00
1F5F81FD00
0BFE1BF400
02FFFFD000
01EFF90000
ENDCHAR
STARTCHAR Scommaaccent
ENCODING 536
SWIDTH 627 0
DWIDTH 23 0
BBX 22 34 0 -12
BITMAP
000016940000
0006FFFF9000
001F9407F800
003C00007D00
007400000500
007800000000
003C00000000
001F40000000
0007E0000000
0001BE000000
00001FE40000
000001FE4000
0000002FE000
04000002FD00
380000002F40
7800000007C0
3D00000002E0
1E00000002E0
0B80000003D0
01F900001BC0
002FFEABFF40
0001BFFFE400
000001540000
000000000000
000000000000
000004000000
00002D000000
00003E000000
00001F000000
00000F000000
00001E000000
00003E000000
00003C000000
000010000000
ENDCHAR
STARTCHAR scommaaccent
ENCODING 537
SWIDTH 514 0
DWIDTH 19 0
BBX 17 29 1 -12
BITMAP
0055000000
0BFFE00000
2FAABC0000
B8001D0000
B4000E0000
B4001D0000
3D00000000
1FA5400000
02FFFE9000
0005ABF800
0000007F00
0000000F40
9000000F40
F800000F40
7F90007F00
0BFFFFFD00
01AFFF9000
0000000000
0000000000
0000000000
0001400000
0003D00000
0003D00000
0002E00000
0001E00000
0002D00000
0007D00000
0007800000
0001000000
ENDCHAR
STARTCHAR circumflex
ENCODING 710
SWIDTH 375 0
DWIDTH 14 0
BBX 10 8 2 19
BITMAP
004000
00F000
01F800
03FE00
0BFF40
2F1FC0
BD07D0
E401D0
ENDCHAR
STARTCHAR caron
ENCODING 711
SWIDTH 375 0
DWIDTH 14 0
BBX 10 5 2 17
BITMAP
A40190
6E1BD0
07FE40
01F800
005000
ENDCHAR
STARTCHAR breve
ENCODING 728
SWIDTH 224 0
DWIDTH 8 0
BBX 7 4 1 14
BITMAP
8034
D074
7FD0
1500
ENDCHAR
STARTCHAR dotaccent
ENCODING 729
SWIDTH 152 0
DWIDTH 5 0
BBX 3 4 1 16
BITMAP
24
7C
3C
14
ENDCHAR
STARTCHAR ring
ENCODING 730
SWIDTH 333 0
DWIDTH 12 0
BBX 7 7 3 14
BITMAP
0140
2EF0
6028
901C
A028
3AE0
0540
ENDCHAR
STARTCHAR ogonek
ENCODING 731
SWIDTH 254 0
DWIDTH 9 0
BBX 7 8 1 -6
BITMAP
0140
1FC0
7D00
B400
F000
B900
2FF8
0154
ENDCHAR
STARTCHAR tilde
ENCODING 732
SWIDTH 402 0
DWIDTH 14 0
BBX 14 6 0 14
BITMAP
01400040
1FF402D0
3C2F6F40
7407FD00
34005000
10000000
ENDCHAR
STARTCHAR hungarumlaut
ENCODING 733
SWIDTH 264 0
DWIDTH 10 0
BBX 8 5 1 15
BITMAP
0B06
7E2F
F8BD
E0F4
0090
ENDCHAR
STARTCHAR Wgrave
ENCODING 7808
SWIDTH 703 0
DWIDTH 25 0
BBX 25 25 0 0
BITMAP
00000780000000
000002E0000000
000000BC000000
0000002E000000
00000004000000
00000000000000
00000000000000
20000000004000
7400000000E000
B400000000F400
B400000000BC00
B4000000007D00
B8000000003E00
B8000000002E00
78000A00001F00
78000B00000F40
7C000B40000B40
3C000F80000780
2D000FC0000780
2E001FD0000B40
1F007FF4000F40
0B41F8BD002E00
07EBE02F96FC00
01FF4007FFE000
00690001BE4000
ENDCHAR
STARTCHAR wgrave
ENCODING 7809
SWIDTH 656 0
DWIDTH 24 0
BBX 23 20 0 0
BITMAP
00000E000000
00000BD00000
000002F40000
000000B80000
000000100000
1C0000000000
2C0000000000
3C0000000600
780001400380
B40003C001D0
B40003C000F0
B40003D000B4
780003D000B4
780003D00078
3C0007E000B8
2E000BF000F8
0F407FF802F4
07D6FD3FAFE0
01FFF40FFFC0
006F90015500
ENDCHAR
STARTCHAR Wacute
ENCODING 7810
SWIDTH 703 0
DWIDTH 25 0
BBX 25 25 0 0
BITMAP
00000014000000
000000B8000000
000007E0000000
00001F80000000
00002E00000000
00002400000000
00000000000000
20000000004000
7400000000E000
B400000000F400
B400000000BC00
B4000000007D00
B8000000003E00
B8000000002E00
78000A00001F00
78000B00000F40
7C000B40000B40
3C000F80000780
2D000FC0000780
2E001FD0000B40
1F007FF4000F40
0B41F8BD002E00
07EBE02F96FC00
01FF4007FFE000
00690001BE4000
ENDCHAR
STARTCHAR wacute
ENCODING 7811
SWIDTH 656 0
DWIDTH 24 0
BBX 23 23 0 0
BITMAP
000000140000
000000B40000
000007E00000
00001F800000
00002D000000
000024000000
000000000000
000000000000
1C0000000000
2C0000000000
3C0000000600
780001400380
B40003C001D0
B40003C000F0
B40003D000B4
780003D000B4
780003D00078
3C0007E000B8
2E000BF000F8
0F407FF802F4
07D6FD3FAFE0
01FFF40FFFC0
006F90015500
ENDCHAR
STARTCHAR Wdieresis
ENCODING 7812
SWIDTH 703 0
DWIDTH 25 0
BBX 25 24 0 0
BITMAP
00002807400000
0000BE1FC00000
0000BD0FC00000
00001405000000
00000000000000
00000000000000
20000000004000
7400000000E000
B400000000F400
B400000000BC00
B4000000007D00
B8000000003E00
B8000000002E00
78000A00001F00
78000B00000F40
7C000B40000B40
3C000F80000780
2D000FC0000780
2E001FD0000B40
1F007FF4000F40
0B41F8BD002E00
07EBE02F96FC00
01FF4007FFE000
00690001BE4000
ENDCHAR
STARTCHAR wdieresis
ENCODING 7813
SWIDTH 656 0
DWIDTH 24 0
BBX 23 19 0 0
BITMAP
0000A01E0000
0002F83F4000
0002F83F4000
000050190000
1C0000000000
2C0000000000
3C0000000600
780001400380
B40003C001D0
B40003C000F0
B40003D000B4
780003D000B4
780003D00078
3C0007E000B8
2E000BF000F8
0F407FF802F4
07D6FD3FAFE0
01FFF40FFFC0
006F90015500
ENDCHAR
STARTCHAR Ygrave
ENCODING 7922
SWIDTH 403 0
DWIDTH 15 0
BBX 14 30 0 -1
BITMAP
00380000
002F0000
000BD000
0002E000
00004000
00000000
70000000
740000A0
3C0000E0
2E0000E0
1F4001E0
0BD003D0
02F407C0
00BE4B80
001FFF40
0002FF00
00003E00
00003D00
00007C00
0000B400
0000F000
0001E000
0001D000
0002D000
0002C000
0003C000
0003C000
0003C000
0003C000
00014000
ENDCHAR
STARTCHAR ygrave
ENCODING 7923
SWIDTH 487 0
DWIDTH 18 0
BBX 17 38 0 -18
BITMAP
0003800000
0002F00000
0000BD0000
00002E0000
1000040800
7000000C00
7000000D00
7400000E00
7400000E00
7800000F00
3C00000F00
2D00000F40
2E00000F40
0F00000F80
0B40001F80
03C0007F80
01F402FF80
007FAF9380
001BFD0280
00005002C0
00000002C0
00000002C0
00000002C0
00000002C0
00000003C0
0000000380
0000000380
0000000780
0000000740
0000000B40
1C00000B00
1F00000F00
0FC0001E00
07F4003D00
01FE00B800
002FEBF000
0006FFD000
0000190000
ENDCHAR
STARTCHAR endash
ENCODING 8211
SWIDTH 287 0
DWIDTH 10 0
BBX 10 4 0 8
BITMAP
055540
2FFFE0
7FAAE0
100000
ENDCHAR
STARTCHAR emdash
ENCODING 8212
SWIDTH 512 0
DWIDTH 18 0
BBX 17 4 0 8
BITMAP
0001555500
0AFFFFFFC0
7FFFEAABC0
1500000000
ENDCHAR
STARTCHAR quoteleft
ENCODING 8216
SWIDTH 102 0
DWIDTH 4 0
BBX 3 9 0 17
BITMAP
70
74
78
7C
3C
3C
3C
2C
04
ENDCHAR
STARTCHAR quoteright
ENCODING 8217
SWIDTH 102 0
DWIDTH 4 0
BBX 3 9 0 17
BITMAP
70
74
78
7C
3C
3C
3C
2C
04
ENDCHAR
STARTCHAR quotesinglbase
ENCODING 8218
SWIDTH 102 0
DWIDTH 4 0
BBX 3 9 1 -1
BITMAP
40
D0
E0
F0
F0
F0
B4
B4
74
ENDCHAR
STARTCHAR quotedblleft
ENCODING 8220
SWIDTH 234 0
DWIDTH 8 0
BBX 8 12 0 17
BITMAP
0020
5038
B03C
743C
783C
783D
3C2D
3D2D
2E2D
1F2D
061D
0004
ENDCHAR
STARTCHAR quotedblright
ENCODING 8221
SWIDTH 234 0
DWIDTH 8 0
BBX 8 12 0 17
BITMAP
0020
5038
B03C
743C
783C
783D
3C2D
3D2D
2E2D
1F2D
061D
0004
ENDCHAR
STARTCHAR quotedblbase
ENCODING 8222
SWIDTH 341 0
DWIDTH 12 0
BBX 8 12 2 -5
BITMAP
0014
5028
742C
782D
382D
3C2E
2D2E
2E1E
1E1E
0F1E
060E
0005
ENDCHAR
STARTCHAR dagger
ENCODING 8224
SWIDTH 375 0
DWIDTH 14 0
BBX 12 23 1 0
BITMAP
01C000
01D000
00D000
00E000
00B000
007400
007400
057A94
7FFFFD
FFBDA9
402C00
002C00
002D00
002D00
002D00
002D00
002D00
002D00
002D00
001D00
001D00
001E00
001D00
ENDCHAR
STARTCHAR daggerdbl
ENCODING 8225
SWIDTH 375 0
DWIDTH 14 0
BBX 17 27 -2 0
BITMAP
0006400000
0007800000
0007800000
0007C00000
0003C00000
0002D00000
0002D00000
0001D00000
0000E00000
0055E55400
7FFFFFFF80
BFFFFA9BC0
0000B00140
0000700000
0055B55400
7FFFFFFF40
6AAABAAA00
0000740000
0000740000
0000740000
0000740000
0000740000
0000740000
0000740000
0000740000
0000780000
0000740000
ENDCHAR
STARTCHAR bullet
ENCODING 8226
SWIDTH 341 0
DWIDTH 12 0
BBX 6 7 4 6
BITMAP
1A00
3FC0
BFE0
FFF0
FFF0
BFD0
2F40
ENDCHAR
STARTCHAR ellipsis
ENCODING 8230
SWIDTH 612 0
DWIDTH 22 0
BBX 20 7 1 0
BITMAP
0A00180064
2F807F00FD
3FC0BF41FE
7FD0FF82FF
7FD0FF82FF
3F80BF01FD
1E002D00B8
ENDCHAR
STARTCHAR guilsinglleft
ENCODING 8249
SWIDTH 487 0
DWIDTH 18 0
BBX 17 15 0 0
BITMAP
0000000600
0000006F40
000002F800
00001FD000
0000BE0000
0002F40000
001F800000
00BD000000
07E0000000
1F80000000
7F40000000
BFFE940000
1BFFFFE000
0016AFFC00
0000006C00
ENDCHAR
STARTCHAR guilsinglright
ENCODING 8250
SWIDTH 403 0
DWIDTH 15 0
BBX 14 17 1 0
BITMAP
50000000
FC000000
7F800000
0BF90000
01BFE900
0006FFC0
00000BD0
00000FC0
00002F40
0000BD00
0007F400
002F8000
01FD0000
07E00000
2F800000
BD000000
E0000000
ENDCHAR
STARTCHAR fraction
ENCODING 8260
SWIDTH 309 0
DWIDTH 11 0
BBX 11 27 0 0
BITMAP
000024
000074
000074
0000B0
0000F0
0000E0
0002D0
0003C0
000780
000B40
000F00
001F00
002E00
003C00
007800
00B400
00F000
02E000
03D000
07C000
0B8000
0F4000
2F0000
3D0000
7C0000
B40000
600000
ENDCHAR
STARTCHAR Euro
ENCODING 8364
SWIDTH 741 0
DWIDTH 27 0
BBX 26 25 0 0
BITMAP
000000000BF800
000000007FED00
00000002F90900
0000000F800000
0000007C000000
000001F9000000
00055BFFF80000
2FFFFFFFFF0000
BFFAFE45450000
5400B400000000
0000E000000000
0001D000000000
0002C005640000
0003FBFFFD0000
16AFFFA5400000
BFFF8000000000
500B4000000000
000B4000000000
00074000000000
00034000000000
00038000000000
0001E000005A90
0000F9016BFFD0
00003FFFFFF900
000006FFA90000
ENDCHAR
STARTCHAR trademark
ENCODING 8482
SWIDTH 1116 0
DWIDTH 40 0
BBX 39 22 0 0
BITMAP
BFFFEAA9501E000000E0
5AFFFFFFFFEF800002E0
000557E5AFFFD00003E0
000002C0006BE00007E0
000002C00003F4000BE0
000002C00002FD002FE0
000002D00002FF51BFD0
000002D00002DBFFFFD0
000001D00002C2FF92D0
000001E00003C01001E0
000001E00003C00001E0
000001E00003C00001E0
000000F00003C00000F0
000000F00003C00000F0
000000F40003C00000F4
000000B40003C00000B4
000000B80003C00000B8
000000780003C00000BC
0000007C0003C00000BC
0000007E0003C000007C
0000003F0002C000007C
0000001F00000000003C
ENDCHAR
STARTCHAR minus
ENCODING 8722
SWIDTH 287 0
DWIDTH 10 0
BBX 10 4 0 8
BITMAP
055540
2FFFE0
7FAAE0
100000
ENDCHAR
STARTCHAR commaaccent
ENCODING 63171
SWIDTH 375 0
DWIDTH 14 0
BBX 3 9 4 -12
BITMAP
10
B8
BC
3C
3C
78
F8
F0
50
ENDCHAR
STARTCHAR fi
ENCODING 64257
SWIDTH 551 0
DWIDTH 20 0
BBX 18 27 -1 -1
BITMAP
0000050000
0000BFE000
0007FAFD00
000F802F40
001E000BC0
002C0282D0
003802E000
0074005000
0070000000
00B4000000
00B4000000
00B4003800
00B8003800
00B8003800
05BE957800
3FFFFFFC00
697FAFBC00
001F003D00
000F403D00
000B802E00
0003D02F00
0002F02F00
0000F81F40
0000BD1F40
00003E0F40
00001E0B40
0000000600
ENDCHAR
STARTCHAR fl
ENCODING 64258
SWIDTH 723 0
DWIDTH 26 0
BBX 18 26 -1 0
BITMAP
0000050000
0000BFE000
0007FAFD00
000F802F40
001E000BC0
002C0002D0
003800B000
007400B400
007000B800
00B400B800
00B400B800
00B400B800
00B800B800
00B800B800
05BE95B800
3FFFFFF800
697FAEF800
001F00B800
000F40B800
000B80B800
0003D0B800
0002F0B800
0000F87800
0000BD7800
00003E7800
00001E3400
ENDCHAR
STARTCHAR .notdef
ENCODING -1
SWIDTH 375 0
DWIDTH 14 0
BBX 1 1 0 0
BITMAP
00
ENDCHAR
STARTCHAR .null
ENCODING -1
SWIDTH 0 0
DWIDTH 0 0
BBX 1 1 0 0
BITMAP
00
ENDCHAR
STARTCHAR nonmarkingreturn
ENCODING -1
SWIDTH 375 0
DWIDTH 14 0
BBX 1 1 0 0
BITMAP
00
ENDCHAR
ENDFONT
